<svg width="24" height="18" viewBox="0 0 24 18" fill="none" xmlns="http://www.w3.org/2000/svg">
<g clip-path="url(#clip0_116_55)">
<path d="M11.0606 17.9998C10.1998 17.9998 9.12435 17.8807 8.14645 17.4285C6.92053 16.8611 6.15305 15.9185 5.86564 14.6264C5.36179 12.362 4.92642 11.3754 4.5056 10.4219C4.25828 9.8618 4.00281 9.28279 3.74201 8.46768C3.57986 7.96169 3.45425 7.38559 3.33254 6.82874C3.18387 6.14767 3.02988 5.44335 2.81166 4.87161C2.36565 3.70415 1.92283 2.89086 1.09537 2.44262C1.05741 2.42228 0.96125 2.39249 0.884253 2.36888C0.622037 2.28824 0.295599 2.18799 0.145862 1.90176C-0.0812254 1.46805 -0.00138985 1.12006 0.105412 0.904299C0.455979 0.197071 1.49242 0.0390612 1.50307 0.0376082C3.29848 -0.222472 4.44137 0.906842 5.23582 1.91992C5.613 2.40048 5.90822 2.9646 6.19421 3.50982C6.52455 4.1404 6.83679 4.73612 7.23988 5.14876C7.39245 5.30495 7.39245 5.55777 7.23988 5.71396C7.0873 5.87015 6.84034 5.87015 6.68777 5.71396C6.20308 5.21777 5.84861 4.54142 5.5062 3.88759C5.23724 3.37433 4.95906 2.84364 4.6273 2.42046C3.6125 1.1266 2.73892 0.66565 1.61235 0.829108C1.35156 0.866885 0.905897 1.05577 0.801934 1.26609C0.787741 1.29442 0.755806 1.35908 0.820385 1.49711C0.877156 1.53234 1.02015 1.57629 1.1085 1.60354C1.23517 1.6424 1.35475 1.67945 1.46013 1.73612C2.61367 2.36053 3.13775 3.53161 3.5387 4.58029C3.77891 5.20906 3.9393 5.94389 4.09471 6.65439C4.21783 7.21777 4.33386 7.74956 4.48395 8.21886C4.73162 8.99293 4.96758 9.52725 5.21737 10.0928C5.65416 11.0826 6.10621 12.1063 6.62745 14.4492C6.85773 15.484 7.47725 16.2417 8.46863 16.7005C10.3886 17.589 13.0704 17.1055 13.7921 16.7042C14.6632 16.2196 16.2084 14.2643 16.989 13.0394C17.5117 12.2192 18.0191 11.3583 18.5098 10.5258C19.6925 8.51926 20.9155 6.44444 22.491 4.68781L22.5197 4.65584C22.75 4.39939 22.9675 4.15675 23.091 3.88069C23.2251 3.58138 23.2613 3.18944 23.1683 3.04197C23.0349 2.82983 22.74 2.67183 22.3462 2.92391C21.9101 3.23666 17.6877 7.79823 16.6882 9.26609C16.565 9.44698 16.3216 9.49166 16.1449 9.36525C15.9682 9.2392 15.9246 8.99002 16.048 8.80913C17.0678 7.31149 21.4354 2.56649 21.9286 2.24901C22.2802 2.02272 22.6549 1.94498 23.0122 2.02489C23.3464 2.09936 23.6349 2.30713 23.8251 2.60971C24.1448 3.11861 23.9603 3.85744 23.8006 4.21378C23.6257 4.60463 23.3557 4.90539 23.0945 5.19634L23.0661 5.22795C21.5439 6.92573 20.3414 8.96568 19.1783 10.9388C18.684 11.7772 18.1731 12.6442 17.643 13.476C17.0004 14.4844 15.3047 16.7721 14.165 17.4063C13.6388 17.6991 12.6339 17.9261 11.6049 17.9846C11.4367 17.994 11.2544 18.0002 11.0613 18.0002L11.0606 17.9998Z" fill="white"/>
<path d="M14.3532 7.09085C14.2528 7.09085 14.1524 7.05162 14.0761 6.9728C13.9243 6.81624 13.9253 6.56306 14.0782 6.40759C14.1187 6.36655 14.1606 6.32441 14.2035 6.28119C14.6048 5.87726 15.1541 5.32369 15.2183 4.89216C15.2584 4.62227 15.1058 4.2445 14.8479 3.97352C14.6534 3.76938 14.4345 3.66114 14.2628 3.68366C13.8093 3.74287 13.5673 3.79808 13.3079 4.04944C13.2653 4.09085 13.2235 4.13153 13.1827 4.17149C12.7434 4.60084 12.3641 4.97134 11.5643 5.34911C11.3685 5.44138 11.1367 5.35384 11.0466 5.15369C10.9565 4.95318 11.042 4.71599 11.2375 4.62336C11.9191 4.30153 12.2388 3.98914 12.6433 3.59357C12.6849 3.55289 12.7274 3.51148 12.7707 3.46935C13.2086 3.04472 13.6422 2.95899 14.1634 2.89107C14.5832 2.83622 15.0359 3.02765 15.4056 3.41559C15.8439 3.87509 16.0674 4.48678 15.9893 5.01239C15.8861 5.70691 15.2563 6.34112 14.7503 6.85075C14.7084 6.89288 14.6673 6.93429 14.6275 6.97461C14.5516 7.05198 14.4519 7.09049 14.3525 7.09049L14.3532 7.09085Z" fill="white"/>
<path d="M6.45075 6.67655C6.3521 6.67655 6.25382 6.63878 6.17789 6.5625C6.02389 6.40812 6.02105 6.1553 6.17185 5.99729C6.57174 5.57921 7.02663 5.10191 7.48151 4.62461C7.93675 4.14695 8.39199 3.66929 8.79223 3.2512C9.17828 2.84728 9.57782 2.42955 10.0568 2.09246C10.6192 1.69689 11.2143 1.48186 11.7781 1.47023C12.3217 1.45897 12.8262 1.63587 13.1967 1.96751C13.5235 2.25992 13.9379 2.74666 13.7623 3.5901C13.7172 3.80587 13.51 3.94353 13.2992 3.8974C13.0885 3.85127 12.954 3.63914 12.999 3.42338C13.0835 3.01836 12.9529 2.81095 12.6829 2.56903C12.4622 2.37143 12.1372 2.26246 11.7933 2.269C11.3828 2.27735 10.935 2.44408 10.4989 2.75065C10.0824 3.04379 9.71017 3.43318 9.35002 3.8095C8.95013 4.22759 8.49525 4.70489 8.04036 5.18218C7.58512 5.65984 7.12988 6.13751 6.72964 6.55559C6.65335 6.63551 6.55187 6.67583 6.45075 6.67583V6.67655Z" fill="white"/>
<path d="M18.3351 7.19443L17.6102 6.89802C17.7479 6.54496 17.7277 6.07492 17.563 5.80431C17.3821 5.50682 17.0578 5.30522 16.7164 5.27834C16.3552 5.24964 15.955 5.40511 15.7438 5.65647L15.1523 5.13486C15.527 4.68953 16.1643 4.43308 16.7764 4.48139C17.3608 4.52752 17.9161 4.8726 18.2258 5.38186C18.5235 5.87115 18.5675 6.59944 18.3355 7.19443H18.3351Z" fill="white"/>
</g>
<defs>
<clipPath id="clip0_116_55">
<rect width="24" height="18" fill="white"/>
</clipPath>
</defs>
</svg>
