<svg width="440" height="398" viewBox="0 0 440 398" fill="none" xmlns="http://www.w3.org/2000/svg">
<g clip-path="url(#clip0_19_282)">
<path d="M220.007 550.747C403.909 550.747 552.991 401.696 552.991 217.832C552.991 33.9675 403.909 -115.084 220.007 -115.084C36.1049 -115.084 -112.977 33.9675 -112.977 217.832C-112.977 401.696 36.1049 550.747 220.007 550.747Z" fill="white"/>
<path d="M89.6594 259.758C86.8139 259.859 84.3133 260.003 81.7983 260.003C79.815 260.003 79.1683 259.428 79.0246 257.474C78.8953 255.764 78.9097 254.04 78.9528 252.316C79.0965 248.005 79.4127 243.68 79.4414 239.37C79.4845 234.642 79.2977 229.901 79.1971 225.174C79.154 222.903 79.1971 220.648 79.0534 218.392C78.7659 213.736 78.3923 213.406 73.7216 213.262C69.1946 213.119 64.6533 213.162 60.1263 213.133C58.4305 213.133 57.4245 212.4 57.2233 210.633C57.0508 209.11 57.0796 207.544 57.2233 206.021C57.367 204.541 58.2437 203.837 59.8245 203.851C64.6964 203.908 69.5683 204.095 74.4402 204.138C76.3228 204.153 78.2198 203.995 80.1025 203.765C82.8474 203.434 85.5636 203.276 88.2798 203.966C88.4522 204.009 88.6247 204.052 88.7828 204.038C91.5564 203.995 94.3301 203.923 97.1038 203.908C100.711 203.88 104.333 203.894 107.94 203.937C108.558 203.937 109.176 204.167 109.794 204.325C112.107 204.929 112.381 205.259 112.424 207.687C112.438 208.679 112.495 209.699 112.337 210.676C112.05 212.415 111.087 213.133 109.391 213.133C104.864 213.162 100.323 213.133 95.796 213.262C91.6714 213.377 90.7804 213.478 90.0618 218.564C89.8606 219.987 89.9325 221.452 89.9468 222.903C89.99 230.332 90.0187 237.775 90.1049 245.203C90.148 248.723 90.3492 252.244 90.3492 255.778C90.3492 257.014 89.9325 258.25 89.6451 259.787L89.6594 259.758Z" fill="#EB3F22"/>
<path d="M157.894 233.364C158.642 236.137 161.128 237.775 161.732 240.419C164.318 242.718 165.971 245.792 168.429 248.249C170.311 250.146 172.151 252.028 174.292 253.652C175.6 254.643 176.936 255.434 178.517 255.865C180.17 256.31 180.285 256.569 180.386 258.652C179.61 258.983 178.833 259.399 178 259.672C177.339 259.873 176.563 260.132 175.945 259.96C173.071 259.169 170.081 259.313 167.221 259.442C165.138 259.543 163.528 258.408 161.617 258.336C161.358 258.336 161.042 257.905 160.855 257.618C159.777 255.893 158.785 254.112 157.679 252.416C157.205 251.698 156.515 251.094 155.882 250.477C153.856 248.465 152.706 245.821 150.967 243.594C149.775 242.057 148.524 240.505 147.044 239.284C145.549 238.048 143.796 237.013 142.014 236.223C139.715 235.203 137.3 234.37 134.785 235.763C134.412 235.979 133.952 236.036 133.521 236.166C132.342 236.51 131.178 236.855 129.813 237.258C129.655 242.804 129.468 248.106 129.367 253.422C129.353 254.399 129.727 255.376 129.842 256.353C130.086 258.379 129.339 259.83 126.795 259.701C124.912 259.6 123.015 259.873 121.118 260.017C119.264 260.146 118 259.098 117.928 257.172C117.856 255.362 117.87 253.551 117.971 251.741C118.23 247.459 118.718 243.177 118.833 238.881C118.962 233.867 118.833 228.838 118.761 223.823C118.689 218.507 118.56 213.191 118.474 207.874C118.431 205.058 119.02 204.138 121.707 203.794C123.676 203.535 125.746 202.86 127.715 203.966C127.93 204.081 128.275 204.139 128.519 204.052C130.474 203.377 132.472 204.11 134.397 203.923C137.703 203.593 140.979 203.664 144.27 203.966C144.63 203.995 144.989 203.995 145.363 203.995C148.769 203.909 152.203 203.463 155.566 203.808C160.726 204.34 165.741 205.317 169.593 209.541C171.303 211.423 172.237 213.248 172.381 215.676C172.453 216.74 172.884 217.788 172.912 218.852C172.927 219.987 172.683 221.136 172.481 222.271C172.338 223.062 172.093 223.838 171.849 224.599C171.691 225.102 171.605 225.878 171.26 226.05C169.894 226.697 169.291 228.263 168.112 228.881C165.281 230.361 162.752 232.574 159.389 232.947C158.886 233.005 158.412 233.234 157.923 233.378L157.894 233.364ZM162.465 218.708C162.105 217.817 161.703 217.156 161.588 216.438C161.286 214.656 160.524 213.435 158.584 213.162C156.63 212.874 154.704 212.415 152.749 212.156C150.45 211.854 148.136 211.653 145.808 211.466C144.141 211.337 142.46 211.179 140.793 211.236C138.723 211.308 136.668 211.567 134.613 211.811C133.334 211.969 132.155 212.429 131.293 213.449C129.856 215.159 129.324 217.199 129.396 219.355C129.454 221.079 129.109 223.004 131.02 224.139C131.149 224.211 131.236 224.441 131.279 224.613C131.753 226.841 133.391 226.97 135.231 226.955C139.298 226.927 143.379 227.128 147.432 226.927C151.585 226.726 155.825 226.74 159.432 223.938C160.74 222.918 161.703 221.912 161.631 220.245C161.588 219.355 162.033 218.924 162.45 218.694L162.465 218.708Z" fill="#EB3F22"/>
<path d="M196.41 204.081C197.545 206.279 197.315 208.463 197.229 210.633C197.085 214.426 196.769 218.219 196.726 222.013C196.64 228.996 196.654 235.964 196.726 242.947C196.755 245.476 197.042 247.991 197.2 250.52C197.215 250.793 197.272 251.065 197.258 251.338C197.114 253.939 196.97 256.54 196.812 259.428C194.039 259.643 191.394 259.974 188.721 260.031C186.695 260.074 185.329 258.666 185.344 256.583C185.358 253.35 185.603 250.103 185.689 246.87C185.789 242.89 185.876 238.91 185.904 234.93C185.947 230.231 186.005 225.519 185.89 220.82C185.775 216.495 186.235 212.156 185.473 207.831C185.286 206.782 185.876 205.561 186.292 204.483C186.436 204.095 187.14 203.635 187.528 203.679C190.446 204.009 193.435 202.917 196.41 204.138V204.081Z" fill="#EB3F22"/>
<path d="M236.98 259.758C234.135 259.859 231.634 260.003 229.119 260.003C227.136 260.003 226.489 259.428 226.345 257.474C226.216 255.764 226.23 254.04 226.274 252.316C226.417 248.005 226.733 243.68 226.762 239.37C226.805 234.642 226.618 229.901 226.518 225.174C226.475 222.903 226.518 220.648 226.374 218.392C226.087 213.736 225.713 213.406 221.042 213.262C216.515 213.119 211.974 213.162 207.447 213.133C205.751 213.133 204.745 212.4 204.544 210.633C204.372 209.11 204.4 207.544 204.544 206.021C204.688 204.541 205.564 203.837 207.145 203.851C212.017 203.908 216.889 204.095 221.761 204.138C223.644 204.153 225.541 203.995 227.423 203.765C230.168 203.434 232.884 203.276 235.601 203.966C235.773 204.009 235.945 204.052 236.104 204.038C238.877 203.995 241.651 203.923 244.425 203.908C248.046 203.88 251.653 203.894 255.261 203.937C255.879 203.937 256.496 204.167 257.114 204.325C259.428 204.929 259.701 205.259 259.744 207.687C259.759 208.679 259.816 209.699 259.658 210.676C259.371 212.415 258.408 213.133 256.712 213.133C252.185 213.162 247.644 213.133 243.117 213.262C238.992 213.377 238.101 213.478 237.383 218.564C237.181 219.987 237.253 221.452 237.268 222.903C237.311 230.332 237.34 237.775 237.426 245.203C237.469 248.723 237.67 252.244 237.67 255.778C237.67 257.014 237.253 258.25 236.966 259.787L236.98 259.758Z" fill="#EB3F22"/>
<path d="M291.433 260.003C287.539 260.06 283.285 259.083 279.016 257.618C275.51 256.411 272.664 254.284 269.632 252.387C268.64 251.77 267.936 250.62 267.275 249.6C266.125 247.775 265.665 245.563 263.668 244.226C263.079 243.838 262.877 242.732 262.691 241.913C261.756 237.947 260.779 233.953 260.664 229.887C260.607 227.358 261.253 224.815 261.656 222.286C261.886 220.892 262.259 219.527 262.604 218.148C262.691 217.788 262.82 217.429 263.021 217.127C264.099 215.576 265.263 214.096 266.283 212.501C267.591 210.475 269.273 208.938 271.27 207.558C274.288 205.475 277.536 203.98 281 202.917C282.437 202.472 283.931 202.141 285.44 201.983C288.185 201.696 290.945 201.337 293.69 201.437C296.521 201.538 299.381 201.94 302.14 202.544C306.538 203.506 310.518 205.618 314.183 208.162C315.692 209.21 316.827 210.863 317.992 212.343C319.242 213.952 319.4 216.294 321.527 217.372C321.944 217.587 321.829 218.837 321.972 219.613C322.605 222.961 323.726 226.294 323.754 229.657C323.783 233.105 322.835 236.582 322.174 240.016C321.786 242.028 321.426 244.126 319.457 245.419C319.041 245.692 318.811 246.353 318.624 246.884C317.359 250.376 314.772 252.603 311.697 254.5C305.647 258.221 299.122 260.089 291.433 259.974V260.003ZM292.252 211.797C288.688 211.553 285.311 211.998 282.135 213.507C279.936 214.541 278.111 216.107 276.918 218.176C275.495 220.648 274.446 223.292 273.886 226.136C273.268 229.283 273.239 232.372 274.274 235.447C274.633 236.525 275.064 237.617 275.251 238.723C275.898 242.56 278.901 244.585 281.56 246.726C283.199 248.034 285.412 248.68 287.553 249.126C289.393 249.499 291.361 250.261 293.1 249.931C296.205 249.341 299.395 248.838 302.226 247.014C304.482 245.562 306.423 243.838 307.96 241.712C309.484 239.614 309.498 236.884 310.375 234.499C310.82 233.278 310.921 231.898 310.964 230.576C311.079 226.682 309.857 223.119 308.276 219.599C306.897 216.538 304.626 214.512 301.694 213.219C298.691 211.897 295.472 211.481 292.267 211.782L292.252 211.797Z" fill="#EB3F22"/>
<path d="M343.515 222.142C341.129 222.674 340.31 223.809 340.368 225.921C340.555 233.608 340.77 241.309 340.626 249.011C340.583 251.468 341.072 253.853 340.957 256.281C340.914 257.244 340.727 258.207 340.583 259.313C337.522 259.557 334.677 259.83 331.817 260.017C330.595 260.089 330.221 259.687 330.107 258.451C330.078 258.178 330.078 257.905 330.107 257.632C331.012 248.149 330.466 238.622 330.552 229.125C330.61 222.243 330.451 215.346 330.38 208.463C330.38 208.19 330.38 207.932 330.394 207.659C330.61 203.966 331.069 203.477 334.792 203.535C336.962 203.564 339.117 203.88 341.273 203.923C342.566 203.952 343.443 204.526 344.32 205.403C348.042 209.095 351.405 213.076 354.538 217.271C357.297 220.964 360.444 224.355 363.477 227.846C365.489 230.174 367.573 232.444 369.642 234.729C370.059 235.188 370.519 235.663 371.036 236.007C372.89 237.243 374.327 236.582 374.457 234.341C374.643 230.82 374.787 227.286 374.744 223.751C374.686 218.866 374.399 213.995 374.313 209.11C374.284 207.328 374.571 205.546 374.744 203.521H379.228C379.946 203.521 380.679 203.564 381.398 203.521C383.41 203.391 384.1 203.736 384.301 205.633C384.502 207.4 384.373 209.225 384.33 211.006C384.258 214.168 383.999 217.329 384.042 220.49C384.186 229.915 384.416 239.327 384.646 248.752C384.703 251.281 384.948 253.81 385.005 256.339C385.063 258.911 384.43 259.514 381.886 259.658C380.435 259.744 378.998 259.902 377.561 259.988C375.779 260.103 374.155 259.485 373.479 257.876C372.258 254.931 369.958 252.847 367.989 250.52C362.054 243.436 356.018 236.439 349.996 229.427C347.869 226.97 345.671 224.57 343.515 222.156V222.142Z" fill="#EB3F22"/>
<path d="M221.833 333.986C166.805 333.986 115.068 323.569 76.1216 304.66C36.8447 285.579 15.2158 260.104 15.2158 232.905C15.2158 205.705 36.8447 180.216 76.1216 161.149C115.068 142.24 166.819 131.823 221.833 131.823C276.846 131.823 328.597 142.24 367.544 161.149C406.82 180.23 428.449 205.705 428.449 232.905C428.449 260.104 406.82 285.579 367.544 304.66C328.597 323.569 276.846 333.986 221.833 333.986ZM221.833 134.682C109.492 134.682 18.0901 178.736 18.0901 232.89C18.0901 287.045 109.492 331.098 221.833 331.098C334.173 331.098 425.575 287.045 425.575 232.89C425.575 178.736 334.173 134.682 221.833 134.682Z" fill="#EB3F22"/>
<path d="M154.072 202.874C153.957 202.874 153.856 202.874 153.741 202.831C152.965 202.644 152.491 201.868 152.678 201.107C162.551 159.668 190.345 131.822 221.833 131.822C253.32 131.822 279.965 158.619 290.341 198.506C290.542 199.267 290.082 200.058 289.306 200.259C288.545 200.46 287.754 200 287.553 199.224C277.507 160.617 251.093 134.682 221.818 134.682C192.544 134.682 165.008 161.637 155.452 201.768C155.293 202.428 154.704 202.874 154.058 202.874H154.072Z" fill="#EB3F22"/>
<path d="M221.832 333.985C190.086 333.985 162.22 305.852 152.505 263.968C152.333 263.192 152.807 262.416 153.583 262.244C154.359 262.057 155.135 262.546 155.307 263.322C164.721 303.869 191.466 331.126 221.847 331.126C252.228 331.126 278.987 303.869 288.386 263.293C288.559 262.517 289.335 262.043 290.111 262.215C290.887 262.388 291.361 263.164 291.189 263.94C281.474 305.838 253.607 334 221.847 334L221.832 333.985Z" fill="#EB3F22"/>
<path d="M360.573 214.915C359.941 214.915 359.366 214.498 359.194 213.866C346.331 167.988 288.559 134.682 221.833 134.682C164.074 134.682 111.475 160.142 90.9383 198.032C90.5647 198.736 89.688 198.995 88.9838 198.607C88.2796 198.219 88.021 197.357 88.409 196.652C109.434 157.858 163.054 131.808 221.833 131.808C289.823 131.808 348.76 165.99 361.967 213.09C362.183 213.851 361.738 214.642 360.976 214.857C360.847 214.9 360.717 214.915 360.588 214.915H360.573Z" fill="#EB3F22"/>
<path d="M221.833 333.985C161.617 333.985 107.538 307.059 87.2883 266.986C86.9291 266.282 87.2165 265.42 87.9207 265.06C88.6249 264.701 89.4872 264.989 89.8464 265.693C109.621 304.818 162.666 331.112 221.833 331.112C284.305 331.112 339.735 301.657 356.622 259.471C356.923 258.738 357.757 258.379 358.49 258.666C359.223 258.968 359.582 259.802 359.295 260.534C341.977 303.769 285.455 333.971 221.833 333.971V333.985Z" fill="#EB3F22"/>
<path d="M383.97 295.406C383.797 295.406 383.625 295.378 383.467 295.306C372.171 291.024 358.949 287.202 344.176 283.94C326.729 280.104 307.442 277.115 286.863 275.089C265.981 273.02 244.094 271.972 221.832 271.972C199.571 271.972 177.684 273.02 156.802 275.089C136.222 277.115 116.936 280.09 99.4891 283.94C84.7154 287.188 71.5081 291.01 60.1979 295.306C59.4649 295.593 58.6314 295.22 58.344 294.472C58.0566 293.725 58.4302 292.906 59.1775 292.619C70.6027 288.28 83.9681 284.415 98.8712 281.139C116.433 277.274 135.834 274.285 156.515 272.23C177.497 270.161 199.471 269.098 221.832 269.098C244.194 269.098 266.168 270.147 287.15 272.23C307.845 274.271 327.232 277.259 344.794 281.139C359.697 284.415 373.048 288.28 384.487 292.619C385.234 292.906 385.608 293.725 385.321 294.472C385.105 295.047 384.559 295.406 383.984 295.406H383.97Z" fill="#EB3F22"/>
<path d="M221.833 196.825C199.471 196.825 177.497 195.776 156.486 193.693C135.82 191.652 116.405 188.649 98.7854 184.77C83.8679 181.494 70.4882 177.614 59.0486 173.261C58.3013 172.973 57.942 172.154 58.2151 171.407C58.5025 170.66 59.3217 170.286 60.069 170.574C71.3792 174.884 84.6152 178.721 99.4033 181.968C116.922 185.833 136.223 188.822 156.774 190.833C177.684 192.902 199.586 193.951 221.847 193.951C244.108 193.951 265.996 192.902 286.906 190.833C307.457 188.807 326.758 185.819 344.277 181.968C359.065 178.721 372.286 174.884 383.611 170.574C384.358 170.286 385.177 170.66 385.465 171.407C385.752 172.154 385.379 172.973 384.631 173.261C373.177 177.629 359.812 181.494 344.895 184.77C327.261 188.664 307.845 191.652 287.179 193.693C266.168 195.762 244.18 196.825 221.833 196.825Z" fill="#EB3F22"/>
<path d="M109.564 137.182C109.291 137.426 109.377 137.685 109.477 137.915C109.851 138.82 110.024 139.768 110.196 140.731C110.325 141.449 110.656 142.139 110.857 142.843C111.03 143.432 111.188 144.05 111.303 144.653C111.504 145.731 111.964 146.722 112.395 147.714C112.495 147.944 112.625 148.174 112.697 148.418C112.783 148.72 112.769 149.021 112.481 149.237C112.179 149.481 111.849 149.51 111.504 149.337C111.418 149.294 111.346 149.237 111.274 149.179C110.742 148.734 110.196 148.317 109.693 147.843C108.946 147.153 108.227 146.449 107.509 145.745C107.437 145.688 107.379 145.602 107.307 145.559C106.201 145.07 105.439 144.122 104.448 143.49C104.333 143.418 104.232 143.317 104.146 143.202C103.327 142.182 102.191 141.507 101.329 140.53C100.208 139.251 98.7708 138.346 97.5205 137.211C96.8738 136.621 96.2559 135.989 95.5948 135.414C95.063 134.955 94.4738 134.538 93.899 134.093C93.5684 134.437 93.7409 134.682 93.8702 134.912C94.3157 135.774 94.7756 136.636 95.2067 137.512C95.8822 138.863 96.5576 140.214 97.2187 141.564C97.305 141.722 97.3624 141.909 97.3768 142.096C97.4056 142.541 97.3768 142.987 96.9313 143.26C96.4571 143.561 96.0403 143.317 95.6379 143.087C95.178 142.829 94.7325 142.541 94.287 142.254C93.8271 141.952 93.3816 141.622 92.9073 141.334C92.2606 140.946 91.5995 140.558 90.9241 140.213C90.3924 139.941 89.8175 139.739 89.4151 139.265C89.3432 139.179 89.2426 139.122 89.142 139.05C88.754 138.805 88.366 138.561 87.978 138.317C86.9001 137.656 85.8223 136.995 84.7301 136.334C84.5576 136.219 84.3708 136.133 84.1983 136.018C83.0055 135.199 81.827 134.351 80.6198 133.547C79.93 133.087 79.1827 132.728 78.4641 132.297C77.7887 131.894 77.142 131.449 76.4809 131.018C75.3743 130.299 74.2533 129.61 73.1467 128.877C72.1839 128.245 71.2353 127.584 70.2725 126.951C69.9132 126.707 69.5108 126.52 69.1371 126.276C67.8868 125.5 66.6365 124.71 65.3862 123.934C65.2281 123.834 65.0557 123.747 64.9407 123.618C64.2653 122.9 63.3886 122.483 62.5407 122.009C62.4545 121.966 62.3539 121.951 62.2964 121.879C61.3191 121.003 60.0976 120.543 59.0053 119.839C57.9275 119.135 56.8496 118.431 55.7574 117.727C55.2688 117.411 54.7514 117.152 54.2915 116.807C53.6017 116.261 53.4436 115.471 53.7885 114.681C54.0041 114.164 54.3347 114.006 54.8808 114.063C55.7431 114.164 56.5335 114.437 57.3239 114.796C58.0568 115.141 58.8616 115.313 59.5371 115.787C60.2557 116.29 60.9886 116.764 61.7359 117.224C62.2389 117.54 62.7994 117.799 63.3024 118.115C64.3659 118.776 65.415 119.451 66.4784 120.112C67.2401 120.586 68.0162 121.06 68.7922 121.52C69.482 121.923 70.1431 122.397 70.9192 122.698C71.4653 122.914 71.9252 123.331 72.4282 123.661C72.7156 123.848 73.003 124.035 73.3192 124.178C74.4977 124.71 75.403 125.63 76.4953 126.276C77.1851 126.693 77.8749 127.11 78.5504 127.526C78.6222 127.569 78.7372 127.584 78.7947 127.641C79.3839 128.216 80.1887 128.446 80.8354 128.934C81.0797 129.107 81.3528 129.236 81.6115 129.394C82.0857 129.681 82.5456 129.983 83.0342 130.256C83.5372 130.544 84.0546 130.788 84.572 131.061C84.8738 131.219 85.1612 131.391 85.463 131.578C86.1815 132.009 86.8858 132.455 87.6043 132.871C87.748 132.957 87.9492 132.957 88.1217 132.986C88.4235 132.613 88.2941 132.282 88.1217 131.995C87.633 131.19 87.1013 130.386 86.6127 129.581C86.4115 129.25 86.2534 128.891 86.0522 128.546C85.7217 127.972 85.3911 127.383 85.0462 126.822C84.6007 126.118 84.1121 125.443 83.6953 124.724C83.2642 123.992 82.8905 123.216 82.4881 122.469C82.3444 122.21 82.1576 121.966 82.0138 121.693C81.8845 121.434 81.7264 121.147 81.7121 120.859C81.6833 120.227 82.0713 119.954 82.7037 120.098C83.7815 120.328 84.6582 120.917 85.4773 121.606C86.5265 122.483 87.5468 123.388 88.5816 124.279C88.639 124.322 88.6678 124.394 88.7253 124.423C90.0618 125.213 91.1684 126.319 92.39 127.268C93.1516 127.857 93.8271 128.561 94.5457 129.207C95.1493 129.753 95.7816 130.256 96.3708 130.817C97.6499 132.052 98.9002 133.317 100.179 134.552C100.941 135.285 101.76 135.989 102.536 136.708C102.737 136.894 102.924 137.096 103.125 137.282C103.657 137.8 104.174 138.317 104.721 138.805C104.821 138.892 105.008 138.863 105.152 138.892C105.152 138.748 105.224 138.576 105.18 138.446C105.008 137.986 104.792 137.555 104.591 137.11C104.074 135.946 103.542 134.797 103.025 133.633C102.953 133.46 102.867 133.288 102.867 133.101C102.852 132.469 102.594 131.937 102.321 131.391C101.961 130.687 101.645 129.969 101.329 129.25C101.243 129.064 101.171 128.862 101.156 128.647C101.042 127.641 100.639 126.736 100.323 125.788C100.021 124.897 99.7337 123.977 100.064 123.015C100.294 122.354 100.539 122.239 101.142 122.641C101.401 122.813 101.616 123.072 101.832 123.288C102.364 123.805 102.867 124.336 103.413 124.854C103.93 125.342 104.462 125.831 104.994 126.305C105.324 126.592 105.683 126.851 106 127.153C106.962 128.058 107.868 129.021 108.86 129.868C109.837 130.687 110.785 131.535 111.604 132.512C112.28 133.331 112.912 134.179 113.602 134.983C114.163 135.63 114.766 136.233 115.355 136.851C115.585 137.11 115.815 137.369 116.06 137.613C116.318 137.9 116.577 138.202 116.85 138.475C117.396 139.007 117.957 139.509 118.517 140.027C118.675 140.17 118.833 140.3 118.963 140.458C119.652 141.262 120.328 142.067 121.118 142.814C121.679 143.346 122.268 143.849 122.699 144.538C123.03 145.07 123.576 145.487 124.021 145.946C124.064 145.99 124.136 146.033 124.179 146.09C124.826 147.225 125.875 147.944 126.867 148.748C126.996 148.849 127.082 148.993 127.169 149.122C127.47 149.553 127.772 149.998 128.246 150.286C128.376 150.372 128.476 150.516 128.591 150.631C128.951 150.99 129.324 151.335 129.669 151.694C129.914 151.952 130.187 152.225 130.359 152.542C130.589 152.958 130.417 153.26 129.957 153.361C129.411 153.476 128.951 153.289 128.548 152.93C127.988 152.427 127.442 151.881 126.852 151.392C125.66 150.401 124.467 149.424 123.26 148.461C122.656 147.987 122.009 147.599 121.391 147.153C121.219 147.038 121.061 146.895 120.903 146.765C119.394 145.401 117.87 144.05 116.404 142.642C115.93 142.182 115.413 141.837 114.881 141.478C114.752 141.392 114.622 141.291 114.507 141.162C113.775 140.386 112.941 139.739 112.007 139.208C111.633 139.007 111.375 138.604 111.058 138.303C110.67 137.943 110.268 137.584 109.866 137.239C109.808 137.182 109.707 137.182 109.621 137.153L109.564 137.182Z" fill="#EB3F22"/>
<path d="M328.928 144.452C329.23 144.308 329.503 144.237 329.704 144.079C330.681 143.346 331.615 142.556 332.463 141.65C332.995 141.09 333.498 140.472 334.274 140.213C334.346 140.185 334.403 140.127 334.446 140.084C335.481 139.15 336.53 138.216 337.565 137.268C338.068 136.823 338.571 136.363 339.074 135.917C339.505 135.529 339.907 135.156 340.238 134.667C340.554 134.208 341.086 133.891 341.517 133.518C341.891 133.187 342.25 132.843 342.638 132.526C343.112 132.124 343.673 131.808 344.09 131.348C345.225 130.084 346.648 129.193 347.884 128.072C348.142 127.842 348.315 127.526 348.559 127.296C349.608 126.305 350.643 125.285 351.936 124.581C352.152 124.466 352.411 124.394 352.64 124.38C353.201 124.38 353.431 124.71 353.244 125.213C352.957 126.003 352.669 126.808 352.367 127.598C352.296 127.814 352.181 128.015 352.094 128.216C351.807 128.848 351.52 129.48 351.261 130.141C350.614 131.736 349.996 133.345 349.364 134.94C349.177 135.429 348.947 135.889 348.775 136.391C348.717 136.564 348.775 136.779 348.789 136.952C349.234 137.124 349.508 136.851 349.781 136.65C350.614 136.004 351.419 135.328 352.252 134.696C353.417 133.834 354.509 132.871 355.544 131.837C355.63 131.751 355.716 131.65 355.817 131.592C356.794 130.946 357.785 130.314 358.763 129.653C359.151 129.394 359.539 129.107 359.912 128.819C360.832 128.087 361.738 127.339 362.657 126.607C363.462 125.974 364.267 125.328 365.086 124.724C365.503 124.423 365.991 124.193 366.437 123.934C366.566 123.862 366.724 123.805 366.811 123.704C367.486 122.943 368.435 122.54 369.239 121.966C370.677 120.931 372.099 119.882 373.536 118.833C373.637 118.761 373.738 118.661 373.838 118.618C374.859 118.129 375.706 117.382 376.598 116.707C377.69 115.873 378.854 115.126 379.975 114.322C380.392 114.034 380.78 113.718 381.196 113.431C381.354 113.316 381.541 113.244 381.714 113.143C381.987 112.985 382.26 112.813 382.547 112.669C382.921 112.468 383.28 112.224 383.683 112.109C384.344 111.922 384.832 112.411 384.689 113.072C384.545 113.776 384.2 114.394 383.711 114.911C383.065 115.615 382.375 116.247 381.512 116.707C380.952 117.009 380.435 117.425 379.975 117.885C379.342 118.517 378.638 119.006 377.891 119.466C377.46 119.739 377.086 120.141 376.727 120.529C375.893 121.434 374.887 122.124 373.867 122.799C373.249 123.216 372.703 123.747 372.128 124.221C371.912 124.394 371.697 124.566 371.496 124.753C370.763 125.371 370.03 125.974 369.326 126.592C368.593 127.239 367.874 127.914 367.156 128.561C367.141 128.575 367.127 128.604 367.098 128.604C365.934 129.035 365.187 130.041 364.253 130.773C363.793 131.133 363.419 131.578 362.959 131.923C361.982 132.656 360.947 133.317 359.984 134.064C359.237 134.653 358.576 135.357 357.829 135.946C356.894 136.693 355.888 137.354 354.926 138.087C354.336 138.547 353.761 139.035 353.201 139.524C352.353 140.257 351.476 140.975 350.686 141.751C349.795 142.642 348.803 143.389 347.754 144.079C347.467 144.265 347.165 144.481 346.935 144.74C346.26 145.501 345.369 145.946 344.492 146.435C344.363 146.507 344.219 146.579 344.118 146.679C343.371 147.311 342.652 147.944 341.891 148.562C341.618 148.777 341.33 148.978 341.028 149.151C340.281 149.567 339.476 149.108 339.419 148.245C339.419 148.016 339.376 147.771 339.448 147.57C339.907 146.363 340.109 145.07 340.899 143.978C341.201 143.561 341.33 143.03 341.531 142.556C341.618 142.354 341.69 142.139 341.776 141.923C342.092 141.219 342.408 140.515 342.724 139.797C342.782 139.653 342.825 139.509 342.854 139.366C342.897 139.093 342.969 138.748 342.667 138.633C342.494 138.575 342.193 138.705 342.006 138.834C341.546 139.136 341.143 139.509 340.698 139.84C339.606 140.63 338.499 141.406 337.392 142.182C336.372 142.9 335.352 143.619 334.331 144.323C334.317 144.337 334.288 144.352 334.274 144.366C333.383 145.271 332.348 145.946 331.256 146.579C331.127 146.651 331.026 146.78 330.911 146.866C329.905 147.728 328.942 148.648 327.879 149.424C327.246 149.883 326.715 150.444 326.111 150.918C325.119 151.708 324.085 152.47 323.021 153.159C322.662 153.389 322.173 153.49 321.742 153.519C321.11 153.562 320.794 153.188 320.937 152.57C321.052 152.082 321.253 151.622 321.455 151.162C321.699 150.587 322.001 150.027 322.274 149.467C322.303 149.395 322.346 149.323 322.36 149.251C322.432 148.935 322.561 148.576 322.216 148.36C321.886 148.145 321.685 148.475 321.455 148.662C320.204 149.61 319.083 150.717 317.819 151.679C316.827 152.427 315.764 153.001 314.758 153.691C313.967 154.223 313.234 154.826 312.487 155.415C312.386 155.487 312.315 155.588 312.2 155.659C311.898 155.861 311.452 155.846 311.222 155.645C310.949 155.415 310.877 154.941 311.122 154.611C311.438 154.165 311.797 153.748 312.142 153.332C312.271 153.174 312.444 153.059 312.544 152.886C313.234 151.823 314.298 151.105 315.074 150.128C315.979 148.993 317.043 148.015 317.804 146.751C318.336 145.875 319.141 145.199 319.96 144.567C320.075 144.481 320.219 144.395 320.319 144.294C321.268 143.36 322.202 142.426 323.136 141.492C324.559 140.07 325.939 138.633 327.39 137.239C327.965 136.679 328.612 136.205 329.273 135.745C329.848 135.343 330.58 135.644 330.667 136.348C330.739 136.909 330.753 137.527 330.609 138.058C330.279 139.265 329.804 140.429 329.431 141.622C329.215 142.34 329.057 143.073 328.899 143.806C328.87 143.964 328.928 144.136 328.957 144.409L328.928 144.452Z" fill="#EB3F22"/>
<path d="M204.702 27.5512C204.601 27.6374 204.63 27.7236 204.673 27.8099C204.802 28.1403 204.874 28.4852 204.932 28.83C204.975 29.0886 205.104 29.3329 205.176 29.5915C205.233 29.8071 205.291 30.0226 205.334 30.2525C205.406 30.6404 205.564 30.9996 205.736 31.3588C205.78 31.4451 205.823 31.5313 205.851 31.6175C205.88 31.7324 205.88 31.833 205.78 31.9192C205.665 32.0054 205.55 32.0198 205.435 31.948C205.406 31.9336 205.377 31.9192 205.348 31.8905C205.162 31.7324 204.96 31.5744 204.774 31.4019C204.5 31.1577 204.242 30.8991 203.983 30.6404C203.954 30.6117 203.94 30.583 203.911 30.5686C203.509 30.3962 203.236 30.0513 202.877 29.8214C202.833 29.7927 202.805 29.764 202.762 29.7208C202.474 29.3473 202.057 29.103 201.741 28.7582C201.339 28.2984 200.821 27.9679 200.362 27.5656C200.132 27.3501 199.902 27.1202 199.672 26.919C199.485 26.7466 199.269 26.6029 199.054 26.4449C198.939 26.5742 198.996 26.6604 199.054 26.7466C199.212 27.0627 199.384 27.3788 199.542 27.6805C199.787 28.1691 200.031 28.6576 200.275 29.1461C200.304 29.2036 200.333 29.2754 200.333 29.3329C200.333 29.491 200.333 29.649 200.175 29.7496C200.002 29.8502 199.844 29.7783 199.7 29.6921C199.528 29.5915 199.37 29.491 199.212 29.3904C199.039 29.2898 198.881 29.1605 198.709 29.0599C198.479 28.9162 198.235 28.7725 197.99 28.6576C197.789 28.557 197.588 28.4852 197.444 28.3128C197.415 28.284 197.387 28.2553 197.344 28.2409C197.2 28.1547 197.056 28.0685 196.927 27.9823C196.539 27.738 196.151 27.5081 195.748 27.2639C195.691 27.2208 195.619 27.192 195.562 27.1489C195.13 26.8472 194.699 26.5454 194.268 26.2581C194.024 26.1 193.751 25.9563 193.492 25.8126C193.248 25.669 193.018 25.5109 192.773 25.3529C192.371 25.0942 191.969 24.8356 191.566 24.577C191.221 24.3471 190.876 24.1028 190.532 23.8729C190.402 23.7867 190.258 23.7149 190.115 23.6287C189.655 23.3413 189.209 23.0683 188.749 22.7809C188.692 22.7522 188.635 22.7091 188.591 22.666C188.347 22.4073 188.031 22.2493 187.729 22.0769C187.7 22.0625 187.657 22.0481 187.643 22.0338C187.284 21.7177 186.852 21.5452 186.45 21.301C186.062 21.0423 185.674 20.7837 185.272 20.5395C185.099 20.4245 184.912 20.3383 184.74 20.209C184.496 20.0078 184.438 19.7205 184.553 19.4331C184.625 19.2463 184.754 19.1888 184.955 19.2176C185.272 19.2607 185.559 19.3469 185.832 19.4906C186.091 19.6199 186.393 19.6774 186.637 19.8498C186.896 20.0366 187.169 20.209 187.427 20.367C187.614 20.482 187.815 20.5682 187.988 20.6831C188.376 20.913 188.749 21.1717 189.138 21.4016C189.411 21.574 189.698 21.7464 189.971 21.9044C190.23 22.0481 190.46 22.2206 190.733 22.3355C190.934 22.4073 191.092 22.5654 191.279 22.6803C191.379 22.7522 191.494 22.8097 191.595 22.8671C192.026 23.0539 192.357 23.3844 192.745 23.6287C192.989 23.7723 193.248 23.9304 193.492 24.0884C193.521 24.1028 193.564 24.1028 193.578 24.1316C193.794 24.3471 194.081 24.4189 194.311 24.5913C194.397 24.6488 194.498 24.7063 194.599 24.7494C194.771 24.85 194.944 24.9649 195.116 25.0655C195.303 25.1661 195.49 25.2523 195.676 25.3529C195.791 25.4103 195.892 25.4678 195.993 25.5397C196.251 25.6977 196.51 25.8558 196.769 26.0138C196.826 26.0425 196.898 26.0426 196.956 26.0569C197.071 25.9276 197.013 25.7983 196.956 25.6977C196.783 25.4103 196.582 25.123 196.409 24.8212C196.338 24.7063 196.28 24.577 196.208 24.4477C196.093 24.2321 195.964 24.031 195.849 23.8154C195.691 23.5568 195.518 23.3126 195.36 23.0539C195.202 22.7809 195.073 22.5079 194.929 22.2349C194.872 22.1343 194.814 22.0481 194.757 21.9619C194.714 21.8613 194.656 21.7608 194.642 21.6602C194.642 21.4303 194.771 21.3297 195.001 21.3872C195.389 21.4734 195.705 21.6889 196.007 21.9332C196.381 22.2493 196.754 22.5798 197.128 22.8959C197.142 22.9102 197.157 22.939 197.185 22.9533C197.674 23.2407 198.076 23.643 198.508 23.9879C198.781 24.2034 199.025 24.462 199.284 24.6919C199.499 24.8931 199.729 25.0655 199.945 25.2667C200.405 25.7121 200.865 26.1719 201.324 26.6173C201.597 26.8903 201.899 27.1345 202.187 27.3932C202.259 27.465 202.33 27.5369 202.402 27.5943C202.589 27.7811 202.79 27.9679 202.977 28.1547C203.006 28.1834 203.078 28.1691 203.135 28.1834C203.135 28.126 203.164 28.0685 203.135 28.0254C203.078 27.8673 202.991 27.7093 202.92 27.5369C202.733 27.1202 202.546 26.7035 202.359 26.2724C202.33 26.215 202.302 26.1431 202.302 26.0857C202.302 25.8558 202.201 25.669 202.1 25.4678C201.971 25.2092 201.856 24.9505 201.741 24.6919C201.712 24.6201 201.684 24.5482 201.684 24.4764C201.641 24.1172 201.497 23.7867 201.382 23.4419C201.267 23.1258 201.166 22.7809 201.296 22.4361C201.382 22.1918 201.468 22.1631 201.684 22.2924C201.784 22.3499 201.856 22.4504 201.928 22.5223C202.115 22.7091 202.302 22.8959 202.503 23.0827C202.69 23.2551 202.877 23.4419 203.078 23.5999C203.193 23.7005 203.322 23.8011 203.437 23.9017C203.782 24.2321 204.112 24.577 204.472 24.8931C204.831 25.1948 205.162 25.4965 205.463 25.8558C205.708 26.1575 205.938 26.4592 206.182 26.7466C206.383 26.9765 206.599 27.192 206.814 27.4219C206.901 27.5081 206.987 27.6087 207.073 27.6949C207.174 27.7955 207.26 27.9104 207.36 28.011C207.562 28.1978 207.763 28.3846 207.964 28.5714C208.021 28.6289 208.079 28.672 208.122 28.7294C208.366 29.0168 208.625 29.3185 208.898 29.5772C209.099 29.764 209.315 29.9507 209.473 30.195C209.588 30.3818 209.789 30.5399 209.947 30.7123C209.962 30.7266 209.99 30.741 210.005 30.7697C210.235 31.1864 210.623 31.4451 210.982 31.7324C211.025 31.7612 211.054 31.8186 211.097 31.8617C211.212 32.0198 211.313 32.1778 211.485 32.2784C211.528 32.3072 211.571 32.3646 211.614 32.4077C211.744 32.5371 211.873 32.6664 212.002 32.7957C212.089 32.8963 212.189 32.9825 212.247 33.0974C212.333 33.2411 212.275 33.356 212.103 33.3992C211.902 33.4423 211.744 33.3704 211.6 33.2411C211.399 33.0543 211.198 32.8675 210.982 32.6807C210.551 32.3215 210.12 31.9623 209.674 31.6175C209.459 31.4451 209.229 31.3014 208.999 31.1433C208.941 31.1002 208.884 31.0571 208.826 30.9996C208.28 30.4967 207.734 30.0226 207.202 29.5053C207.03 29.3473 206.843 29.218 206.656 29.0886C206.613 29.0599 206.556 29.0168 206.527 28.9737C206.254 28.6863 205.966 28.4564 205.621 28.2696C205.492 28.1978 205.392 28.0541 205.277 27.9392C205.133 27.8099 204.989 27.6805 204.845 27.5512C204.817 27.5369 204.788 27.5369 204.759 27.5225L204.702 27.5512Z" fill="#EB3F22"/>
<path d="M210.982 17.0477C210.982 17.0477 210.91 17.1052 210.91 17.1483C210.91 17.3207 210.852 17.4787 210.809 17.6368C210.78 17.7661 210.766 17.8954 210.752 18.0104C210.737 18.1109 210.709 18.2259 210.68 18.3265C210.622 18.5133 210.622 18.7 210.608 18.8868C210.608 18.9299 210.608 18.9731 210.608 19.0162C210.608 19.0736 210.579 19.1167 210.507 19.1311C210.436 19.1311 210.392 19.1311 210.349 19.0736C210.349 19.0736 210.335 19.0449 210.321 19.0305C210.277 18.9156 210.22 18.815 210.177 18.7C210.119 18.542 210.062 18.3696 210.004 18.2115C210.004 18.1972 210.004 18.1828 209.99 18.1684C209.861 18.0104 209.818 17.7948 209.703 17.6224C209.703 17.6081 209.688 17.5793 209.674 17.5506C209.631 17.335 209.501 17.1339 209.444 16.9184C209.372 16.631 209.214 16.3867 209.113 16.1137C209.056 15.9701 209.013 15.8264 208.955 15.6827C208.912 15.5677 208.855 15.4672 208.797 15.3522C208.725 15.381 208.725 15.4241 208.725 15.4815C208.725 15.654 208.725 15.8264 208.725 15.9844C208.725 16.2431 208.725 16.5017 208.725 16.7747C208.725 16.8034 208.725 16.8465 208.711 16.8753C208.682 16.9471 208.639 17.019 208.553 17.019C208.452 17.019 208.409 16.9615 208.366 16.8896C208.309 16.8178 208.266 16.7316 208.222 16.6597C208.179 16.5735 208.136 16.4873 208.079 16.4155C208.007 16.3005 207.935 16.2 207.863 16.085C207.806 15.9988 207.734 15.927 207.705 15.8264C207.705 15.812 207.691 15.7833 207.676 15.7689C207.633 15.6971 207.59 15.6396 207.547 15.5677C207.432 15.381 207.317 15.1942 207.202 15.0074C207.188 14.9786 207.159 14.9499 207.145 14.9212C207.03 14.7056 206.9 14.4757 206.785 14.2602C206.713 14.1309 206.627 14.016 206.541 13.901C206.469 13.7861 206.397 13.6711 206.325 13.5562C206.21 13.355 206.095 13.1682 205.98 12.9671C205.88 12.7946 205.779 12.6222 205.679 12.4498C205.636 12.378 205.592 12.3205 205.549 12.263C205.42 12.0475 205.276 11.832 205.147 11.6021C205.133 11.5733 205.104 11.5446 205.104 11.5159C205.046 11.3578 204.946 11.2141 204.859 11.0848C204.859 11.0848 204.831 11.0561 204.831 11.0417C204.745 10.8262 204.586 10.6681 204.486 10.467C204.371 10.2802 204.256 10.079 204.141 9.89224C204.083 9.80603 204.026 9.71982 203.983 9.63361C203.925 9.48992 203.954 9.3606 204.069 9.26002C204.141 9.20255 204.213 9.20255 204.285 9.26002C204.414 9.34623 204.515 9.44681 204.601 9.56176C204.687 9.67671 204.802 9.76292 204.859 9.89224C204.931 10.0216 205.003 10.1509 205.089 10.2802C205.147 10.3664 205.204 10.4526 205.262 10.5388C205.377 10.7256 205.492 10.9124 205.592 11.0992C205.679 11.2285 205.751 11.3578 205.837 11.5015C205.909 11.6164 205.98 11.7457 206.081 11.8463C206.153 11.9182 206.182 12.0187 206.239 12.1193C206.268 12.1768 206.297 12.2199 206.34 12.263C206.483 12.4354 206.555 12.651 206.67 12.8377C206.742 12.9527 206.814 13.0676 206.886 13.197C206.886 13.197 206.915 13.2257 206.915 13.2401C206.958 13.3694 207.073 13.47 207.13 13.5993C207.159 13.6424 207.188 13.6855 207.216 13.7286C207.274 13.8148 207.317 13.8866 207.374 13.9729C207.432 14.0591 207.489 14.1309 207.547 14.2171C207.576 14.2602 207.619 14.3177 207.648 14.3608C207.719 14.4757 207.806 14.6051 207.877 14.72C207.892 14.7487 207.921 14.7631 207.949 14.7775C208.021 14.7487 208.036 14.6769 208.021 14.6194C208.021 14.4614 207.992 14.289 207.978 14.1309C207.978 14.0591 207.978 14.0016 207.978 13.9297C207.978 13.8148 207.978 13.6999 207.949 13.5849C207.949 13.4412 207.906 13.2975 207.906 13.1539C207.906 13.0102 207.906 12.8521 207.906 12.7084C207.906 12.651 207.906 12.6079 207.906 12.5504C207.906 12.4929 207.906 12.4498 207.921 12.3923C207.964 12.2918 208.05 12.2774 208.136 12.3492C208.28 12.4642 208.38 12.6222 208.452 12.7946C208.553 13.0102 208.639 13.2257 208.725 13.4556V13.4843C208.869 13.7142 208.955 13.9729 209.07 14.2027C209.142 14.3464 209.185 14.5188 209.257 14.6769C209.315 14.8062 209.372 14.9355 209.415 15.0649C209.516 15.3522 209.616 15.654 209.717 15.9413C209.774 16.1137 209.846 16.2862 209.918 16.4586C209.933 16.5017 209.947 16.5448 209.961 16.5879C210.004 16.7028 210.048 16.8322 210.091 16.9471C210.091 16.9615 210.134 16.9758 210.148 16.9902C210.148 16.9615 210.191 16.9471 210.191 16.9184C210.191 16.8322 210.191 16.746 210.191 16.6597C210.191 16.4442 210.206 16.2143 210.22 15.9988C210.22 15.9701 210.22 15.927 210.234 15.8982C210.277 15.7976 210.277 15.6971 210.277 15.5965C210.277 15.4528 210.277 15.3235 210.277 15.1798C210.277 15.1511 210.277 15.1079 210.292 15.0792C210.349 14.9212 210.364 14.7487 210.378 14.5763C210.407 14.4183 210.421 14.2459 210.551 14.1309C210.637 14.0447 210.68 14.0447 210.752 14.1596C210.78 14.2027 210.795 14.2602 210.809 14.3177C210.852 14.4326 210.895 14.562 210.939 14.6769C210.982 14.7918 211.025 14.9068 211.068 15.0217C211.097 15.0936 211.14 15.1654 211.154 15.2373C211.226 15.4528 211.298 15.6683 211.384 15.8838C211.47 16.085 211.557 16.2862 211.6 16.5017C211.643 16.6741 211.671 16.8609 211.715 17.0477C211.758 17.1914 211.801 17.3351 211.844 17.4787C211.858 17.5362 211.873 17.5937 211.887 17.6512C211.901 17.723 211.916 17.7805 211.945 17.8523C211.988 17.9816 212.031 18.0966 212.088 18.2259C212.088 18.2546 212.117 18.2977 212.117 18.3265C212.16 18.4989 212.203 18.6857 212.275 18.8581C212.318 18.9874 212.376 19.1024 212.39 19.246C212.39 19.361 212.448 19.4616 212.491 19.5622V19.5909C212.491 19.8208 212.606 20.0076 212.706 20.2087C212.706 20.2375 212.706 20.2662 212.721 20.2949C212.721 20.3812 212.749 20.4817 212.792 20.5536C212.807 20.5823 212.807 20.611 212.821 20.6398C212.85 20.726 212.879 20.8122 212.907 20.884C212.922 20.9415 212.951 21.0134 212.951 21.0708C212.951 21.157 212.907 21.1858 212.821 21.1714C212.735 21.1427 212.678 21.0852 212.634 20.999C212.591 20.8697 212.548 20.7547 212.491 20.6254C212.39 20.3811 212.275 20.1369 212.16 19.8926C212.103 19.7777 212.031 19.6627 211.973 19.5478C211.959 19.519 211.945 19.4903 211.93 19.4472C211.801 19.1167 211.672 18.7863 211.557 18.4558C211.513 18.3552 211.47 18.2546 211.413 18.1541C211.413 18.1253 211.384 18.1109 211.384 18.0822C211.327 17.9098 211.255 17.7374 211.14 17.5793C211.097 17.5218 211.082 17.4356 211.068 17.3638C211.039 17.2776 210.996 17.1914 210.967 17.1052C210.967 17.1052 210.953 17.0908 210.939 17.0764L210.982 17.0477Z" fill="#EB3F22"/>
<path d="M231.849 16.243C231.849 16.243 231.921 16.3005 231.921 16.3436C231.921 16.516 231.979 16.674 232.022 16.8321C232.05 16.9614 232.065 17.0907 232.079 17.2057C232.094 17.3063 232.122 17.4212 232.151 17.5218C232.209 17.7086 232.209 17.8954 232.223 18.0821C232.223 18.1253 232.223 18.1684 232.223 18.2115C232.223 18.2689 232.252 18.312 232.323 18.3264C232.395 18.3264 232.438 18.3264 232.482 18.2689C232.482 18.2689 232.496 18.2402 232.51 18.2258C232.553 18.1109 232.611 18.0103 232.654 17.8954C232.712 17.7373 232.769 17.5649 232.826 17.4068C232.826 17.3925 232.826 17.3781 232.841 17.3637C232.97 17.2057 233.013 16.9902 233.128 16.8177C233.128 16.8034 233.143 16.7746 233.157 16.7459C233.2 16.5304 233.329 16.3292 233.387 16.1137C233.459 15.8263 233.617 15.582 233.718 15.3091C233.775 15.1654 233.818 15.0217 233.876 14.878C233.919 14.763 233.976 14.6625 234.034 14.5475C234.106 14.5763 234.106 14.6194 234.106 14.6768C234.106 14.8493 234.106 15.0217 234.106 15.1797C234.106 15.4384 234.106 15.697 234.106 15.97C234.106 15.9987 234.106 16.0418 234.12 16.0706C234.149 16.1424 234.192 16.2143 234.278 16.2143C234.379 16.2143 234.422 16.1568 234.465 16.0849C234.522 16.0131 234.565 15.9269 234.609 15.855C234.652 15.7688 234.695 15.6826 234.752 15.6108C234.824 15.4958 234.896 15.3953 234.968 15.2803C235.025 15.1941 235.097 15.1223 235.126 15.0217C235.126 15.0073 235.14 14.9786 235.155 14.9642C235.198 14.8924 235.241 14.8349 235.284 14.7631C235.399 14.5763 235.514 14.3895 235.629 14.2027C235.643 14.174 235.672 14.1452 235.686 14.1165C235.801 13.9009 235.931 13.6711 236.046 13.4555C236.118 13.3262 236.204 13.2113 236.29 13.0963C236.362 12.9814 236.434 12.8664 236.506 12.7515C236.621 12.5503 236.735 12.3635 236.85 12.1624C236.951 11.99 237.052 11.8175 237.152 11.6451C237.195 11.5733 237.238 11.5158 237.282 11.4583C237.411 11.2428 237.555 11.0273 237.684 10.7974C237.698 10.7686 237.727 10.7399 237.727 10.7112C237.785 10.5531 237.885 10.4094 237.971 10.2801C237.971 10.2801 238 10.2514 238 10.237C238.086 10.0215 238.244 9.86343 238.345 9.66228C238.46 9.47549 238.575 9.27433 238.69 9.08754C238.747 9.00133 238.805 8.91512 238.848 8.82891C238.906 8.68522 238.877 8.55592 238.762 8.45534C238.69 8.39786 238.618 8.39786 238.546 8.45534C238.417 8.54155 238.316 8.64212 238.23 8.75707C238.144 8.87202 238.029 8.95822 237.971 9.08754C237.9 9.21685 237.828 9.34617 237.741 9.47549C237.684 9.5617 237.627 9.64791 237.569 9.73412C237.454 9.92091 237.339 10.1077 237.238 10.2945C237.152 10.4238 237.08 10.5531 236.994 10.6968C236.922 10.8117 236.85 10.9411 236.75 11.0416C236.678 11.1135 236.649 11.2141 236.592 11.3146C236.563 11.3721 236.534 11.4152 236.491 11.4583C236.347 11.6307 236.276 11.8463 236.161 12.0331C236.089 12.148 236.017 12.263 235.945 12.3923C235.945 12.3923 235.916 12.421 235.916 12.4354C235.873 12.5647 235.758 12.6653 235.701 12.7946C235.672 12.8377 235.643 12.8808 235.615 12.9239C235.557 13.0101 235.514 13.082 235.456 13.1682C235.399 13.2544 235.341 13.3262 235.284 13.4124C235.255 13.4555 235.212 13.513 235.183 13.5561C235.112 13.6711 235.025 13.8004 234.953 13.9153C234.939 13.9441 234.91 13.9584 234.882 13.9728C234.81 13.9441 234.795 13.8722 234.81 13.8147C234.81 13.6567 234.838 13.4843 234.853 13.3262C234.853 13.2544 234.853 13.1969 234.853 13.1251C234.853 13.0101 234.853 12.8952 234.882 12.7802C234.882 12.6365 234.925 12.4929 234.925 12.3492C234.925 12.2055 234.925 12.0474 234.925 11.9037C234.925 11.8463 234.925 11.8032 234.925 11.7457C234.925 11.6882 234.925 11.6451 234.91 11.5876C234.867 11.4871 234.781 11.4727 234.695 11.5445C234.551 11.6595 234.45 11.8175 234.379 11.99C234.278 12.2055 234.192 12.421 234.106 12.6509V12.6796C233.962 12.9095 233.876 13.1682 233.761 13.3981C233.689 13.5417 233.646 13.7142 233.574 13.8722C233.516 14.0015 233.459 14.1308 233.416 14.2602C233.315 14.5475 233.215 14.8493 233.114 15.1366C233.056 15.309 232.985 15.4815 232.913 15.6539C232.898 15.697 232.884 15.7401 232.87 15.7832C232.826 15.8982 232.783 16.0275 232.74 16.1424C232.74 16.1568 232.697 16.1712 232.683 16.1855C232.683 16.1568 232.64 16.1424 232.64 16.1137C232.64 16.0275 232.64 15.9413 232.64 15.855C232.64 15.6395 232.625 15.4096 232.611 15.1941C232.611 15.1654 232.611 15.1223 232.597 15.0935C232.553 14.9929 232.553 14.8924 232.553 14.7918C232.553 14.6481 232.553 14.5188 232.553 14.3751C232.553 14.3464 232.553 14.3033 232.539 14.2745C232.482 14.1165 232.467 13.9441 232.453 13.7716C232.424 13.6136 232.41 13.4412 232.28 13.3262C232.194 13.24 232.151 13.24 232.079 13.3549C232.05 13.3981 232.036 13.4555 232.022 13.513C231.979 13.6279 231.935 13.7573 231.892 13.8722C231.849 13.9872 231.806 14.1021 231.763 14.2171C231.734 14.2889 231.691 14.3607 231.677 14.4326C231.605 14.6481 231.533 14.8636 231.447 15.0792C231.361 15.2803 231.274 15.4815 231.231 15.697C231.188 15.8694 231.159 16.0562 231.116 16.243C231.073 16.3867 231.03 16.5304 230.987 16.674C230.973 16.7315 230.958 16.789 230.944 16.8465C230.929 16.9183 230.915 16.9758 230.886 17.0476C230.843 17.1769 230.8 17.2919 230.743 17.4212C230.743 17.4499 230.714 17.493 230.714 17.5218C230.671 17.6942 230.628 17.881 230.556 18.0534C230.513 18.1827 230.455 18.2977 230.441 18.4414C230.441 18.5563 230.383 18.6569 230.34 18.7575V18.7862C230.34 19.0161 230.225 19.2029 230.125 19.404C230.125 19.4328 230.125 19.4615 230.11 19.4903C230.11 19.5765 230.082 19.677 230.038 19.7489C230.024 19.7776 230.024 19.8064 230.01 19.8351C229.981 19.9213 229.952 20.0075 229.923 20.0794C229.909 20.1368 229.88 20.2087 229.88 20.2661C229.88 20.3523 229.923 20.3811 230.01 20.3667C230.096 20.338 230.153 20.2805 230.197 20.1943C230.24 20.065 230.283 19.95 230.34 19.8207C230.441 19.5765 230.556 19.3322 230.671 19.0879C230.728 18.973 230.8 18.858 230.858 18.7431C230.872 18.7144 230.886 18.6856 230.901 18.6425C231.03 18.312 231.159 17.9816 231.274 17.6511C231.317 17.5505 231.361 17.4499 231.418 17.3494C231.418 17.3206 231.447 17.3063 231.447 17.2775C231.504 17.1051 231.576 16.9327 231.691 16.7746C231.734 16.7171 231.749 16.6309 231.763 16.5591C231.792 16.4729 231.835 16.3867 231.864 16.3005C231.864 16.3005 231.878 16.2861 231.892 16.2717L231.849 16.243Z" fill="#EB3F22"/>
<path d="M222.378 5.86933C222.292 5.89806 222.263 5.85496 222.22 5.79748C222.091 5.62506 221.918 5.48138 221.746 5.33769C221.616 5.22275 221.516 5.07907 221.401 4.96412C221.3 4.86355 221.2 4.76296 221.099 4.66238C220.912 4.50433 220.769 4.28881 220.625 4.08765C220.596 4.04455 220.567 3.98706 220.524 3.94396C220.481 3.88649 220.409 3.85776 220.337 3.8865C220.251 3.91523 220.208 3.9727 220.208 4.07328C220.208 4.08765 220.208 4.11639 220.208 4.13076C220.237 4.28881 220.251 4.44686 220.294 4.59054C220.337 4.82044 220.395 5.03596 220.452 5.26586C220.452 5.28023 220.467 5.30897 220.452 5.32333C220.424 5.59633 220.524 5.85496 220.539 6.12796C220.539 6.1567 220.539 6.18543 220.567 6.21417C220.682 6.48717 220.682 6.80327 220.769 7.07627C220.898 7.44984 220.912 7.83779 220.984 8.21137C221.027 8.41253 221.085 8.59932 221.113 8.80048C221.142 8.95853 221.157 9.11658 221.185 9.289C221.085 9.31774 221.056 9.2459 221.013 9.20279C220.898 9.016 220.769 8.82922 220.654 8.64243C220.467 8.35506 220.28 8.06769 220.093 7.78033C220.064 7.75159 220.036 7.70848 220.007 7.69411C219.921 7.63663 219.834 7.59353 219.719 7.651C219.604 7.70848 219.604 7.82343 219.604 7.92401C219.604 8.03895 219.604 8.16827 219.604 8.28322C219.604 8.41253 219.619 8.52748 219.619 8.6568C219.619 8.82922 219.619 9.00164 219.619 9.17406C219.619 9.31774 219.59 9.44706 219.619 9.57637C219.619 9.60511 219.619 9.63384 219.619 9.64821C219.619 9.74879 219.619 9.86374 219.619 9.96431C219.619 10.2517 219.619 10.539 219.633 10.8264C219.633 10.8695 219.633 10.927 219.633 10.9701C219.662 11.3006 219.691 11.631 219.705 11.9615C219.705 12.1483 219.705 12.3351 219.705 12.5363C219.705 12.7087 219.719 12.8955 219.734 13.0679C219.734 13.3696 219.763 13.6714 219.777 13.9731C219.777 14.2317 219.806 14.5047 219.82 14.7634C219.82 14.8639 219.82 14.9645 219.82 15.0651C219.82 15.3956 219.834 15.7404 219.849 16.0709C219.849 16.114 219.849 16.1571 219.849 16.2002C219.906 16.4157 219.892 16.6312 219.892 16.8611C219.892 16.8755 219.892 16.9042 219.892 16.9186C219.949 17.206 219.892 17.5077 219.921 17.7951C219.921 18.0825 219.949 18.3842 219.964 18.6715C219.964 18.8009 219.964 18.9302 219.964 19.0595C219.993 19.2607 220.136 19.3756 220.323 19.4043C220.452 19.4187 220.524 19.3756 220.567 19.2607C220.654 19.0739 220.682 18.8871 220.697 18.7003C220.711 18.5135 220.769 18.3411 220.754 18.1543C220.74 17.9531 220.725 17.752 220.725 17.5508C220.725 17.4071 220.725 17.2778 220.725 17.1341C220.725 16.8468 220.711 16.5594 220.697 16.2864C220.697 16.0852 220.697 15.8697 220.697 15.6686C220.697 15.4818 220.682 15.295 220.697 15.1226C220.711 14.9933 220.697 14.8496 220.682 14.7202C220.682 14.6484 220.682 14.5622 220.682 14.4904C220.711 14.203 220.639 13.9156 220.639 13.6283C220.639 13.4415 220.639 13.2547 220.639 13.0822C220.639 13.0679 220.639 13.0392 220.639 13.0248C220.596 12.838 220.639 12.6512 220.625 12.4788C220.625 12.4069 220.625 12.3351 220.625 12.2776C220.625 12.1483 220.625 12.019 220.625 11.904C220.625 11.7747 220.625 11.6454 220.639 11.5161C220.639 11.4443 220.639 11.358 220.639 11.2862C220.639 11.0994 220.639 10.9126 220.639 10.7115C220.639 10.6684 220.668 10.6396 220.668 10.5965C220.783 10.5822 220.826 10.6396 220.869 10.7115C220.97 10.8983 221.07 11.0994 221.171 11.2862C221.214 11.358 221.272 11.4443 221.315 11.5161C221.387 11.6454 221.473 11.7747 221.545 11.9184C221.631 12.0908 221.717 12.2633 221.803 12.4213C221.904 12.5937 222.005 12.7518 222.105 12.9242C222.134 12.9817 222.163 13.0535 222.206 13.111C222.249 13.1685 222.278 13.2259 222.335 13.269C222.45 13.3553 222.551 13.2978 222.594 13.1685C222.68 12.9242 222.651 12.6943 222.622 12.45C222.565 12.1483 222.507 11.8322 222.45 11.5305C222.45 11.5161 222.45 11.5017 222.45 11.4874C222.45 11.1281 222.364 10.7833 222.306 10.4385C222.278 10.2229 222.22 10.0074 222.177 9.7919C222.134 9.60511 222.119 9.43268 222.076 9.2459C221.976 8.85795 221.875 8.45564 221.775 8.06769C221.717 7.83779 221.674 7.59353 221.616 7.34927C221.616 7.2918 221.588 7.23433 221.573 7.16248C221.53 7.00443 221.487 6.83201 221.458 6.67395C221.458 6.64522 221.487 6.61648 221.487 6.57338C221.516 6.58774 221.559 6.58774 221.573 6.61648C221.645 6.70269 221.703 6.7889 221.775 6.88948C221.947 7.11938 222.105 7.36364 222.278 7.59353C222.306 7.62227 222.335 7.66538 222.364 7.67975C222.479 7.75159 222.565 7.86653 222.637 7.98148C222.737 8.12517 222.838 8.28321 222.939 8.4269C222.967 8.47 222.996 8.49874 223.039 8.52748C223.226 8.67116 223.355 8.84359 223.513 9.01601C223.657 9.17406 223.801 9.34647 224.031 9.38958C224.189 9.41831 224.232 9.38958 224.232 9.21716C224.232 9.14532 224.203 9.07348 224.189 9.00164C224.146 8.84358 224.103 8.67116 224.06 8.5131C224.017 8.35505 223.988 8.19701 223.959 8.03896C223.945 7.93838 223.93 7.8378 223.916 7.73722C223.844 7.44985 223.758 7.14812 223.715 6.86075C223.657 6.57338 223.614 6.28601 223.513 6.01301C223.427 5.78312 223.341 5.56759 223.255 5.33769C223.197 5.15091 223.14 4.96412 223.082 4.77733C223.054 4.70549 223.039 4.63365 223.01 4.54744C222.982 4.46123 222.953 4.37502 222.939 4.28881C222.896 4.11639 222.867 3.95834 222.824 3.78592C222.824 3.74281 222.809 3.6997 222.795 3.64222C222.709 3.41233 222.637 3.18244 222.579 2.95255C222.536 2.78013 222.508 2.60771 222.421 2.44966C222.349 2.32034 222.335 2.16229 222.292 2.03297C222.292 2.0186 222.292 2.00424 222.292 1.98987C222.148 1.73124 222.119 1.44387 222.076 1.1565C222.076 1.12776 222.048 1.08466 222.033 1.05592C221.976 0.940976 221.933 0.840389 221.933 0.711074C221.933 0.682337 221.918 0.639232 221.904 0.610496C221.875 0.495549 221.846 0.380608 221.818 0.280029C221.789 0.193819 221.775 0.121972 221.731 0.0501296C221.674 -0.0360806 221.602 -0.050449 221.516 0.0501296C221.43 0.13634 221.415 0.251292 221.444 0.380607C221.473 0.553028 221.516 0.725449 221.545 0.89787C221.602 1.24271 221.66 1.58755 221.703 1.94676C221.731 2.11918 221.731 2.2916 221.746 2.46402C221.746 2.50712 221.746 2.56461 221.76 2.60771C221.861 3.0675 221.947 3.51291 222.062 3.9727C222.091 4.11639 222.105 4.26007 222.119 4.40376C222.119 4.44686 222.119 4.47559 222.134 4.5187C222.206 4.74859 222.234 4.99285 222.234 5.23712C222.234 5.33769 222.278 5.42391 222.306 5.52449C222.335 5.63944 222.349 5.76875 222.378 5.8837C222.378 5.89807 222.378 5.92681 222.378 5.94117V5.86933Z" fill="#EB3F22"/>
<path d="M236.707 28.3557C236.822 28.2982 236.908 28.2838 236.994 28.2264C237.354 27.9534 237.684 27.6804 238 27.3499C238.187 27.1487 238.374 26.9188 238.647 26.8326C238.676 26.8326 238.69 26.8039 238.719 26.7895C239.092 26.4447 239.466 26.1142 239.854 25.7694C240.041 25.6113 240.213 25.4389 240.4 25.2808C240.558 25.1372 240.702 25.0078 240.817 24.8354C240.932 24.663 241.119 24.5481 241.277 24.4187C241.406 24.3038 241.55 24.1745 241.679 24.0595C241.852 23.9158 242.053 23.8009 242.197 23.6285C242.599 23.1687 243.116 22.8526 243.562 22.4359C243.648 22.3497 243.72 22.2348 243.806 22.1485C244.18 21.7893 244.568 21.4158 245.028 21.1715C245.1 21.1284 245.2 21.0996 245.286 21.0996C245.488 21.0996 245.574 21.2146 245.502 21.4014C245.401 21.6887 245.286 21.9761 245.186 22.2635C245.157 22.3353 245.114 22.4072 245.085 22.479C244.985 22.7089 244.87 22.9388 244.783 23.1687C244.554 23.7434 244.324 24.3325 244.094 24.9073C244.022 25.0797 243.936 25.2521 243.878 25.4245C243.864 25.482 243.878 25.5682 243.878 25.6257C244.036 25.6832 244.137 25.5969 244.237 25.5107C244.539 25.2808 244.827 25.0366 245.128 24.8067C245.545 24.4906 245.948 24.1457 246.321 23.7722C246.35 23.7434 246.379 23.7003 246.422 23.686C246.781 23.4561 247.14 23.2262 247.485 22.9819C247.629 22.8813 247.773 22.7807 247.902 22.6802C248.233 22.4215 248.563 22.1485 248.894 21.8755C249.181 21.6456 249.469 21.4157 249.77 21.2002C249.928 21.0853 250.101 21.0134 250.259 20.9129C250.302 20.8841 250.36 20.8697 250.403 20.8266C250.647 20.5536 250.992 20.41 251.279 20.1944C251.797 19.8209 252.314 19.4329 252.831 19.0593C252.875 19.0306 252.903 19.0019 252.946 18.9731C253.32 18.8007 253.622 18.5277 253.938 18.2834C254.34 17.9817 254.757 17.7087 255.16 17.4213C255.303 17.3208 255.447 17.2058 255.605 17.1052C255.663 17.0621 255.734 17.0334 255.792 17.0047C255.893 16.9472 255.993 16.8897 256.094 16.8322C256.223 16.7604 256.352 16.6742 256.496 16.6311C256.74 16.5592 256.913 16.746 256.855 16.9759C256.798 17.2346 256.683 17.4501 256.496 17.6369C256.266 17.8955 256.008 18.1254 255.706 18.2834C255.505 18.3984 255.318 18.5421 255.145 18.7145C254.915 18.9444 254.657 19.1168 254.398 19.2892C254.24 19.3898 254.11 19.5335 253.981 19.6772C253.679 20.0077 253.32 20.2519 252.946 20.4962C252.716 20.6399 252.53 20.841 252.314 21.0134C252.242 21.0709 252.156 21.1428 252.084 21.2002C251.825 21.4157 251.552 21.6456 251.294 21.8612C251.035 22.0911 250.776 22.3353 250.503 22.5796C250.503 22.5796 250.503 22.5796 250.489 22.594C250.072 22.752 249.799 23.1112 249.454 23.3842C249.296 23.5135 249.152 23.6716 248.98 23.8009C248.621 24.0595 248.247 24.3038 247.902 24.5768C247.629 24.7923 247.399 25.0366 247.126 25.2521C246.781 25.5251 246.422 25.755 246.077 26.028C245.861 26.1861 245.66 26.3728 245.445 26.5453C245.143 26.8039 244.827 27.0625 244.539 27.3499C244.209 27.666 243.849 27.939 243.476 28.1976C243.375 28.2695 243.26 28.3413 243.174 28.4419C242.93 28.7149 242.613 28.8729 242.297 29.0597C242.254 29.0885 242.197 29.1172 242.154 29.1459C241.88 29.3758 241.622 29.6057 241.349 29.8356C241.248 29.9218 241.148 29.9937 241.033 30.0511C240.76 30.2092 240.472 30.0368 240.458 29.7207C240.458 29.6345 240.443 29.5483 240.458 29.4764C240.63 29.0454 240.702 28.5712 240.989 28.1833C241.104 28.0396 241.148 27.8384 241.219 27.666C241.248 27.5942 241.277 27.5079 241.306 27.4361C241.421 27.1775 241.536 26.9188 241.651 26.6746C241.679 26.6315 241.694 26.574 241.694 26.5165C241.708 26.416 241.737 26.2866 241.622 26.2579C241.564 26.2292 241.449 26.2866 241.377 26.3297C241.219 26.4447 241.061 26.574 240.903 26.6889C240.501 26.9763 240.113 27.2493 239.71 27.5367C239.337 27.7953 238.977 28.0539 238.604 28.3126C238.604 28.3126 238.589 28.3126 238.575 28.3269C238.259 28.6574 237.871 28.9017 237.483 29.1316C237.44 29.1603 237.397 29.2034 237.354 29.2322C236.994 29.5483 236.649 29.8787 236.261 30.1517C236.031 30.3241 235.845 30.5253 235.615 30.6977C235.255 30.9851 234.882 31.2581 234.494 31.5167C234.364 31.6029 234.192 31.6317 234.034 31.646C233.804 31.6604 233.689 31.5311 233.746 31.3012C233.789 31.1288 233.861 30.9564 233.933 30.7983C234.019 30.5971 234.134 30.396 234.221 30.1805C234.221 30.1517 234.249 30.1374 234.249 30.1086C234.278 29.9937 234.321 29.8644 234.206 29.7781C234.091 29.6919 234.019 29.8213 233.933 29.8787C233.488 30.2236 233.071 30.6259 232.625 30.9707C232.266 31.2437 231.878 31.4449 231.519 31.6891C231.231 31.8759 230.973 32.1058 230.7 32.307C230.671 32.3357 230.642 32.3788 230.599 32.3932C230.484 32.465 230.326 32.465 230.24 32.3932C230.139 32.307 230.11 32.1346 230.197 32.0196C230.312 31.8616 230.441 31.7035 230.57 31.5598C230.613 31.5023 230.685 31.4592 230.714 31.4018C230.973 31.0138 231.346 30.7552 231.634 30.4104C231.964 30.008 232.352 29.6488 232.625 29.189C232.812 28.8729 233.114 28.6287 233.401 28.3988C233.444 28.37 233.488 28.3413 233.531 28.2982C233.876 27.9677 234.206 27.6229 234.551 27.2924C235.068 26.7752 235.571 26.2579 236.089 25.755C236.29 25.5538 236.534 25.3814 236.764 25.209C236.98 25.0653 237.239 25.1659 237.267 25.4245C237.296 25.6257 237.296 25.8556 237.239 26.0424C237.124 26.4734 236.951 26.9045 236.807 27.3355C236.721 27.5942 236.678 27.8528 236.621 28.1258C236.621 28.1833 236.621 28.2407 236.635 28.3413L236.707 28.3557Z" fill="#EB3F22"/>
<path d="M265.407 357.047C265.378 357.291 265.32 357.521 265.335 357.737C265.45 359.102 265.565 360.481 265.708 361.846C265.895 363.656 266.096 365.452 266.298 367.263C266.398 368.111 266.513 368.944 266.614 369.792C267.059 373.714 267.505 377.651 267.95 381.574C267.993 381.919 268.08 382.263 268.123 382.608C268.209 383.284 267.993 383.657 267.39 383.959C266.901 384.203 266.183 384.131 265.852 383.715C265.392 383.154 264.918 382.637 264.817 381.832C264.731 381.128 264.357 380.467 264.128 379.778C263.926 379.203 263.754 378.614 263.581 378.025C263.553 377.938 263.581 377.838 263.553 377.766C262.834 375.726 262.116 373.7 261.383 371.66C261.239 371.272 261.11 370.884 260.98 370.496C260.333 368.613 259.701 366.731 259.054 364.863C258.925 364.475 258.681 364.13 258.508 363.757C257.747 361.99 256.985 360.208 256.223 358.441C255.85 357.578 255.433 356.745 255.131 355.869C254.47 353.929 253.507 352.133 252.76 350.236C252.056 348.469 251.15 346.802 250.446 345.035C249.713 343.224 249.095 341.357 248.434 339.517C248.42 339.46 248.42 339.402 248.391 339.345C247.802 337.98 247.155 336.629 246.623 335.25C246.092 333.856 245.258 332.621 244.841 331.155C244.439 329.704 243.691 328.339 243.131 326.916C242.729 325.911 242.326 324.919 241.823 323.956C241.349 323.037 241.105 321.988 240.731 320.997C240.515 320.422 240.314 319.833 240.041 319.287C239.639 318.482 239.409 317.677 239.596 316.758C239.754 315.953 240.4 315.623 241.133 316.054C241.909 316.514 242.355 317.218 242.7 318.008C243.016 318.755 243.39 319.517 243.505 320.307C243.634 321.126 244.022 321.787 244.353 322.505C244.985 323.885 245.703 325.221 246.365 326.586C246.695 327.276 246.997 327.98 247.327 328.655C248.003 330.02 248.678 331.385 249.397 332.721C249.943 333.727 250.59 334.675 251.165 335.667C251.668 336.529 252.127 337.405 252.602 338.282C252.674 338.411 252.745 338.555 252.745 338.684C252.717 340.221 253.636 341.428 254.197 342.765C254.298 343.009 254.398 343.253 254.513 343.497C254.93 344.36 255.332 345.25 255.792 346.098C256.396 347.233 257.071 348.34 257.675 349.475C257.933 349.963 258.048 350.524 258.293 351.012C258.666 351.802 259.069 352.578 259.514 353.325C259.615 353.512 259.96 353.699 260.132 353.656C260.305 353.598 260.477 353.282 260.506 353.052C260.549 352.65 260.506 352.233 260.448 351.831C260.305 350.437 260.175 349.044 260.017 347.65C259.845 346.213 259.644 344.762 259.486 343.325C259.428 342.75 259.414 342.161 259.428 341.572C259.442 341.141 259.716 340.94 260.147 341.026C261.555 341.27 262.705 341.917 263.237 343.325C263.668 344.46 264.314 345.452 265.004 346.443C265.637 347.348 266.025 348.411 266.499 349.417C267.059 350.61 267.562 351.831 268.195 352.981C269.244 354.877 270.365 356.731 271.471 358.599C271.644 358.872 271.902 359.102 272.132 359.375C272.52 358.915 272.434 358.512 272.362 358.11C272.161 357.076 271.96 356.041 271.744 355.007C271.701 354.777 271.629 354.561 271.543 354.331C271.126 353.139 270.94 351.889 270.896 350.624C270.896 350.366 270.911 350.093 270.983 349.848C271.17 349.159 271.586 348.986 272.247 349.23C273.268 349.604 274.087 350.15 274.705 351.098C275.237 351.932 275.984 352.621 276.631 353.383C276.789 353.555 276.947 353.728 277.076 353.929C277.479 354.576 277.895 355.179 278.542 355.653C279.016 356.012 279.304 356.601 279.663 357.104C280.18 357.808 280.755 358.484 281.201 359.245C282.12 360.854 283.27 362.291 284.463 363.699C285.785 365.251 287.107 366.817 288.358 368.427C288.904 369.116 289.407 369.835 290.111 370.381C290.312 370.539 290.441 370.783 290.585 371.013C291.031 371.731 291.419 372.493 292.152 372.996C292.439 373.197 292.583 373.614 292.813 373.915C293.704 375.079 294.58 376.243 295.5 377.378C296.794 378.973 298.087 380.539 299.424 382.105C301.134 384.117 302.873 386.1 304.597 388.097C305.402 389.031 306.25 389.922 307.012 390.884C307.515 391.531 307.931 392.249 308.305 392.968C308.607 393.557 308.291 394.103 307.931 394.591C307.615 395.022 307.198 394.965 306.739 394.864C306.178 394.749 305.733 394.505 305.345 394.045C303.951 392.393 302.528 390.769 301.076 389.16C300.473 388.485 299.754 387.924 299.165 387.249C297.9 385.827 296.679 384.376 295.414 382.939C294.925 382.393 294.379 381.904 293.891 381.358C292.885 380.223 291.893 379.074 290.901 377.91C289.752 376.545 288.631 375.165 287.481 373.8C286.331 372.435 285.167 371.085 284.003 369.749C283.299 368.93 282.58 368.125 281.847 367.335C281.689 367.177 281.359 367.004 281.186 367.076C280.999 367.148 280.899 367.464 280.798 367.708C280.755 367.838 280.77 367.996 280.798 368.139C281.1 369.476 281.416 370.826 281.732 372.162C281.761 372.306 281.819 372.45 281.876 372.579C282.695 374.145 283.011 375.898 283.586 377.551C283.744 377.996 283.931 378.413 284.118 378.844C284.161 378.959 284.247 379.059 284.247 379.16C284.247 380.582 284.952 381.789 285.354 383.097C285.915 384.878 286.417 386.689 287.007 388.456C287.452 389.821 288.128 391.114 288.458 392.494C288.674 393.456 289.306 394.376 288.947 395.454C288.789 395.928 288.559 396.215 288.056 396.287C287.567 396.359 287.194 396.258 286.949 395.798C286.777 395.454 286.59 395.123 286.403 394.793C286.288 394.563 286.202 394.304 286.058 394.089C283.989 390.927 282.35 387.508 280.281 384.347C279.749 383.542 279.203 382.709 278.887 381.818C278.37 380.324 277.392 379.102 276.746 377.694C276.185 376.444 275.467 375.266 274.849 374.045C274.302 372.981 273.785 371.889 273.268 370.826C273.21 370.697 273.138 370.568 273.067 370.438C272.405 369.131 271.773 367.823 271.069 366.544C270.408 365.337 269.66 364.188 268.971 362.995C268.64 362.406 268.353 361.803 268.051 361.199C267.476 360.021 266.901 358.843 266.312 357.665C266.154 357.363 265.967 357.047 265.464 357.032L265.407 357.047Z" fill="#EB3F22"/>
<path d="M328.755 322.649C329.028 322.405 328.942 322.146 328.841 321.916C328.468 321.011 328.295 320.063 328.123 319.1C327.993 318.381 327.663 317.692 327.462 316.988C327.289 316.399 327.131 315.781 327.016 315.177C326.815 314.1 326.355 313.108 325.924 312.117C325.823 311.887 325.694 311.657 325.622 311.413C325.536 311.111 325.55 310.809 325.838 310.594C326.14 310.35 326.47 310.321 326.815 310.493C326.901 310.536 326.973 310.594 327.045 310.651C327.577 311.097 328.123 311.513 328.626 311.988C329.373 312.677 330.092 313.381 330.81 314.085C330.882 314.143 330.94 314.229 331.011 314.272C332.118 314.761 332.88 315.709 333.871 316.341C333.986 316.413 334.087 316.514 334.173 316.628C334.992 317.649 336.128 318.324 336.99 319.301C338.111 320.58 339.548 321.485 340.798 322.62C341.445 323.209 342.063 323.841 342.724 324.416C343.256 324.876 343.845 325.293 344.42 325.738C344.75 325.393 344.578 325.149 344.449 324.919C344.003 324.057 343.543 323.195 343.112 322.318C342.437 320.968 341.761 319.617 341.1 318.267C341.014 318.108 340.956 317.922 340.942 317.735C340.913 317.289 340.942 316.844 341.388 316.571C341.862 316.269 342.279 316.514 342.681 316.743C343.141 317.002 343.586 317.289 344.032 317.577C344.492 317.879 344.937 318.209 345.412 318.496C346.058 318.884 346.719 319.272 347.395 319.617C347.927 319.89 348.501 320.091 348.904 320.565C348.976 320.652 349.076 320.709 349.177 320.781C349.565 321.025 349.953 321.269 350.341 321.514C351.419 322.175 352.497 322.836 353.589 323.497C353.761 323.612 353.948 323.698 354.121 323.813C355.313 324.632 356.492 325.479 357.699 326.284C358.389 326.744 359.136 327.103 359.855 327.534C360.53 327.936 361.177 328.382 361.838 328.813C362.945 329.531 364.066 330.221 365.172 330.954C366.135 331.586 367.083 332.247 368.046 332.879C368.406 333.123 368.808 333.31 369.182 333.554C370.432 334.33 371.682 335.121 372.933 335.896C373.091 335.997 373.263 336.083 373.378 336.213C374.054 336.931 374.93 337.348 375.778 337.822C375.864 337.865 375.965 337.879 376.022 337.951C377 338.828 378.221 339.287 379.314 339.991C380.391 340.696 381.469 341.4 382.561 342.104C383.05 342.42 383.567 342.678 384.027 343.023C384.717 343.569 384.875 344.359 384.53 345.15C384.315 345.667 383.984 345.825 383.438 345.768C382.576 345.667 381.785 345.394 380.995 345.035C380.262 344.69 379.457 344.518 378.782 344.043C378.063 343.54 377.33 343.066 376.583 342.607C376.08 342.29 375.519 342.032 375.016 341.716C373.953 341.055 372.904 340.379 371.84 339.718C371.079 339.244 370.303 338.77 369.527 338.31C368.837 337.908 368.176 337.434 367.4 337.132C366.854 336.917 366.394 336.5 365.891 336.169C365.603 335.983 365.316 335.796 365 335.652C363.821 335.121 362.916 334.201 361.824 333.554C361.134 333.138 360.444 332.721 359.769 332.304C359.697 332.261 359.582 332.247 359.524 332.189C358.935 331.615 358.13 331.385 357.483 330.896C357.239 330.724 356.966 330.595 356.707 330.437C356.233 330.149 355.773 329.847 355.285 329.574C354.782 329.287 354.264 329.043 353.747 328.77C353.445 328.612 353.158 328.439 352.856 328.253C352.137 327.821 351.433 327.376 350.715 326.959C350.571 326.873 350.37 326.873 350.197 326.844C349.895 327.218 350.025 327.548 350.197 327.836C350.686 328.64 351.218 329.445 351.706 330.25C351.907 330.58 352.065 330.939 352.267 331.284C352.597 331.859 352.928 332.448 353.273 333.008C353.718 333.712 354.207 334.388 354.624 335.106C355.055 335.839 355.428 336.615 355.831 337.362C355.974 337.621 356.161 337.865 356.305 338.138C356.434 338.397 356.592 338.684 356.607 338.971C356.636 339.604 356.248 339.877 355.615 339.733C354.537 339.503 353.661 338.914 352.842 338.224C351.792 337.348 350.772 336.443 349.737 335.552C349.68 335.509 349.651 335.437 349.594 335.408C348.257 334.618 347.15 333.511 345.929 332.563C345.167 331.974 344.492 331.27 343.773 330.623C343.17 330.077 342.537 329.574 341.948 329.014C340.669 327.778 339.419 326.514 338.14 325.278C337.378 324.545 336.559 323.841 335.783 323.123C335.582 322.936 335.395 322.735 335.194 322.548C334.662 322.031 334.144 321.514 333.598 321.025C333.498 320.939 333.311 320.968 333.167 320.939C333.167 321.083 333.095 321.255 333.138 321.384C333.311 321.844 333.526 322.275 333.728 322.721C334.245 323.885 334.777 325.034 335.294 326.198C335.366 326.37 335.452 326.543 335.452 326.729C335.467 327.362 335.725 327.893 335.998 328.439C336.358 329.143 336.674 329.862 336.99 330.58C337.076 330.767 337.148 330.968 337.162 331.184C337.277 332.189 337.68 333.095 337.996 334.043C338.298 334.934 338.585 335.853 338.255 336.816C338.025 337.477 337.78 337.592 337.177 337.19C336.918 337.017 336.702 336.759 336.487 336.543C335.955 336.026 335.452 335.494 334.906 334.977C334.389 334.488 333.857 334 333.325 333.526C332.995 333.238 332.635 332.98 332.319 332.678C331.356 331.773 330.451 330.81 329.459 329.962C328.482 329.143 327.534 328.296 326.714 327.319C326.039 326.5 325.407 325.652 324.717 324.847C324.156 324.201 323.553 323.597 322.963 322.979C322.734 322.721 322.504 322.462 322.259 322.218C322.001 321.93 321.742 321.629 321.469 321.356C320.923 320.824 320.362 320.321 319.802 319.804C319.644 319.66 319.486 319.531 319.356 319.373C318.666 318.568 317.991 317.764 317.201 317.016C316.64 316.485 316.051 315.982 315.62 315.292C315.289 314.761 314.743 314.344 314.298 313.884C314.254 313.841 314.183 313.798 314.14 313.74C313.493 312.605 312.444 311.887 311.452 311.082C311.323 310.982 311.236 310.838 311.15 310.709C310.848 310.278 310.547 309.832 310.072 309.545C309.943 309.459 309.842 309.315 309.727 309.2C309.368 308.841 308.995 308.496 308.65 308.137C308.405 307.878 308.132 307.605 307.96 307.289C307.73 306.872 307.902 306.571 308.362 306.47C308.908 306.355 309.368 306.542 309.771 306.901C310.331 307.404 310.877 307.95 311.466 308.439C312.659 309.43 313.852 310.407 315.059 311.37C315.663 311.844 316.31 312.232 316.928 312.677C317.1 312.792 317.258 312.936 317.416 313.065C318.925 314.43 320.448 315.781 321.914 317.189C322.389 317.649 322.906 317.994 323.438 318.353C323.567 318.439 323.696 318.54 323.811 318.669C324.544 319.445 325.378 320.091 326.312 320.623C326.686 320.824 326.944 321.226 327.261 321.528C327.649 321.887 328.051 322.247 328.453 322.591C328.511 322.649 328.611 322.649 328.698 322.678L328.755 322.649Z" fill="#EB3F22"/>
<path d="M109.391 315.379C109.09 315.522 108.817 315.594 108.615 315.752C107.638 316.485 106.704 317.275 105.856 318.18C105.324 318.741 104.821 319.359 104.045 319.617C103.973 319.646 103.916 319.703 103.873 319.747C102.838 320.68 101.789 321.614 100.754 322.563C100.251 323.008 99.7483 323.468 99.2453 323.913C98.8142 324.301 98.4118 324.675 98.0812 325.163C97.7651 325.623 97.2333 325.939 96.8022 326.313C96.4285 326.643 96.0693 326.988 95.6812 327.304C95.207 327.707 94.6465 328.023 94.2297 328.483C93.0944 329.747 91.6716 330.638 90.4357 331.758C90.177 331.988 90.0046 332.305 89.7602 332.534C88.7111 333.526 87.6764 334.546 86.383 335.25C86.1674 335.365 85.9087 335.437 85.6788 335.451C85.1183 335.451 84.8883 335.121 85.0752 334.618C85.3626 333.828 85.65 333.023 85.9518 332.233C86.0237 332.017 86.1387 331.816 86.2249 331.615C86.5123 330.983 86.7997 330.35 87.0584 329.689C87.7051 328.095 88.3231 326.485 88.9554 324.89C89.1423 324.402 89.3722 323.942 89.5447 323.439C89.6021 323.267 89.5447 323.051 89.5303 322.879C89.0848 322.706 88.8117 322.979 88.5387 323.181C87.7051 323.827 86.9003 324.502 86.0668 325.135C84.9027 325.997 83.8105 326.959 82.7758 327.994C82.6895 328.08 82.6033 328.181 82.5027 328.238C81.5255 328.885 80.5338 329.517 79.5566 330.178C79.1686 330.437 78.7805 330.724 78.4069 331.011C77.4871 331.744 76.5817 332.491 75.6619 333.224C74.8571 333.856 74.0524 334.503 73.2332 335.106C72.8164 335.408 72.3278 335.638 71.8823 335.897C71.753 335.968 71.5949 336.026 71.5086 336.126C70.8332 336.888 69.8847 337.29 69.0799 337.865C67.6427 338.9 66.22 339.949 64.7828 340.997C64.6823 341.069 64.5817 341.17 64.4811 341.213C63.4607 341.701 62.6128 342.449 61.7217 343.124C60.6295 343.957 59.4654 344.704 58.3445 345.509C57.9277 345.796 57.5397 346.113 57.1229 346.4C56.9648 346.515 56.778 346.587 56.6056 346.687C56.3325 346.845 56.0594 347.018 55.772 347.161C55.3984 347.363 55.0391 347.607 54.6367 347.722C53.9756 347.909 53.487 347.42 53.6307 346.759C53.7744 346.055 54.1193 345.437 54.6079 344.92C55.2546 344.216 55.9445 343.584 56.8068 343.124C57.3672 342.822 57.8846 342.405 58.3445 341.946C58.9768 341.313 59.681 340.825 60.4283 340.365C60.8595 340.092 61.2331 339.69 61.5924 339.302C62.4259 338.397 63.4319 337.707 64.4523 337.032C65.0703 336.615 65.6164 336.083 66.1912 335.609C66.4068 335.437 66.6224 335.264 66.8236 335.078C67.5565 334.46 68.2894 333.856 68.9936 333.238C69.7266 332.592 70.4452 331.917 71.1637 331.27C71.1781 331.256 71.1925 331.227 71.2212 331.227C72.3853 330.796 73.1326 329.79 74.0667 329.057C74.5266 328.698 74.9003 328.253 75.3602 327.908C76.3374 327.175 77.3721 326.514 78.335 325.767C79.0823 325.178 79.7434 324.474 80.4907 323.885C81.4249 323.137 82.4309 322.477 83.3937 321.744C83.983 321.284 84.5578 320.795 85.1183 320.307C85.9662 319.574 86.8428 318.856 87.6333 318.08C88.5243 317.189 89.5159 316.442 90.565 315.752C90.8525 315.565 91.1543 315.35 91.3842 315.091C92.0596 314.33 92.9507 313.884 93.8273 313.396C93.9567 313.324 94.1004 313.252 94.201 313.151C94.9483 312.519 95.6669 311.887 96.4285 311.269C96.7016 311.054 96.989 310.853 97.2908 310.68C98.0381 310.263 98.8429 310.723 98.9004 311.585C98.9004 311.815 98.9435 312.059 98.8717 312.261C98.4118 313.468 98.2106 314.761 97.4202 315.853C97.1184 316.269 96.989 316.801 96.7878 317.275C96.7016 317.476 96.6297 317.692 96.5435 317.907C96.2273 318.611 95.9112 319.315 95.595 320.034C95.5375 320.178 95.4944 320.321 95.4656 320.465C95.4225 320.738 95.3507 321.083 95.6525 321.198C95.8249 321.255 96.1267 321.126 96.3136 320.997C96.7735 320.695 97.1758 320.321 97.6213 319.991C98.7136 319.201 99.8202 318.425 100.927 317.649C101.947 316.93 102.967 316.212 103.988 315.508C104.002 315.493 104.031 315.479 104.045 315.465C104.936 314.56 105.971 313.884 107.063 313.252C107.193 313.18 107.293 313.051 107.408 312.965C108.414 312.103 109.377 311.183 110.441 310.407C111.073 309.947 111.605 309.387 112.208 308.913C113.2 308.123 114.235 307.361 115.298 306.671C115.657 306.441 116.146 306.341 116.577 306.312C117.209 306.269 117.526 306.643 117.382 307.26C117.267 307.749 117.066 308.209 116.865 308.669C116.62 309.243 116.318 309.804 116.045 310.364C116.017 310.436 115.974 310.508 115.959 310.58C115.887 310.896 115.758 311.255 116.103 311.47C116.433 311.686 116.635 311.355 116.865 311.169C118.115 310.22 119.236 309.114 120.501 308.151C121.492 307.404 122.556 306.829 123.562 306.14C124.352 305.608 125.085 305.005 125.832 304.415C125.933 304.344 126.005 304.243 126.12 304.171C126.422 303.97 126.867 303.984 127.097 304.186C127.37 304.415 127.442 304.89 127.198 305.22C126.881 305.666 126.522 306.082 126.177 306.499C126.048 306.657 125.875 306.772 125.775 306.944C125.085 308.008 124.022 308.726 123.245 309.703C122.34 310.838 121.277 311.815 120.515 313.08C119.983 313.956 119.178 314.631 118.359 315.264C118.244 315.35 118.101 315.436 118 315.537C117.051 316.471 116.117 317.404 115.183 318.338C113.76 319.761 112.381 321.198 110.929 322.591C110.354 323.152 109.708 323.626 109.047 324.086C108.472 324.488 107.739 324.186 107.653 323.482C107.581 322.922 107.566 322.304 107.71 321.773C108.041 320.566 108.515 319.402 108.888 318.209C109.104 317.491 109.262 316.758 109.42 316.025C109.449 315.867 109.391 315.695 109.363 315.422L109.391 315.379Z" fill="#EB3F22"/>
<path d="M165.353 359.978C164.764 360.725 164.247 361.515 163.844 362.392C162.968 364.317 162.034 366.199 161.2 368.139C160.726 369.231 160.022 370.237 159.792 371.458C159.691 372.004 159.346 372.564 158.973 372.981C158.47 373.541 158.168 374.159 157.952 374.835C157.737 375.524 157.392 376.128 156.889 376.674C156.573 377.019 156.357 377.464 156.113 377.881C155.739 378.484 155.408 379.131 154.977 379.691C154.561 380.266 153.555 380.137 153.123 379.49C152.965 379.26 152.865 378.944 152.865 378.671C152.865 377.306 152.692 375.941 153.138 374.605C153.238 374.303 153.224 373.958 153.238 373.642C153.31 372.378 153.368 371.113 153.468 369.849C153.483 369.561 153.655 369.288 153.698 369.015C153.813 368.211 153.971 367.421 153.986 366.616C154 366.07 153.598 365.912 153.224 366.3C152.893 366.645 152.635 367.076 152.376 367.478C152.204 367.751 152.089 368.053 151.931 368.34C151.04 369.849 150.149 371.358 149.243 372.866C148.783 373.642 148.309 374.418 147.835 375.194C147.777 375.28 147.705 375.352 147.677 375.438C146.972 377.148 146.283 378.858 145.564 380.553C145.32 381.128 145.075 381.688 144.788 382.234C144.17 383.369 143.509 384.49 142.877 385.611C142.719 385.898 142.632 386.214 142.503 386.516C142.374 386.818 142.316 387.191 142.101 387.407C141.195 388.298 140.678 389.419 140.175 390.525C139.557 391.876 138.493 392.91 137.804 394.189C137.344 395.051 136.999 395.971 136.208 396.603C135.605 397.091 135.044 397.637 134.426 398.111C133.78 398.614 132.817 398.571 132.271 398.068C131.681 397.537 131.566 396.675 131.969 395.927C132.759 394.447 133.32 392.867 133.981 391.33C134.383 390.381 134.944 389.505 135.432 388.6C135.792 387.939 136.122 387.263 136.524 386.645C137.401 385.324 138.292 384.002 139.241 382.723C139.83 381.918 140.204 381.042 140.563 380.122C140.865 379.346 141.21 378.556 141.669 377.866C142.56 376.53 143.178 375.079 143.883 373.656C144.486 372.406 145.162 371.185 145.751 369.921C146.57 368.153 147.346 366.372 148.137 364.59C148.252 364.331 148.438 364.087 148.582 363.828C149.171 362.751 149.919 361.759 150.278 360.552C150.465 359.92 150.982 359.389 151.298 358.785C151.816 357.779 152.232 356.702 152.793 355.725C153.598 354.317 154.187 352.794 155.193 351.5C155.423 351.199 155.581 350.825 155.753 350.48C156.271 349.518 157.018 349.374 157.794 350.15C158.369 350.725 158.714 351.429 158.944 352.248C159.49 354.115 159.202 355.998 159.303 357.88C159.332 358.426 159.404 358.986 159.547 359.518C159.677 360.006 160.065 360.093 160.438 359.733C160.668 359.518 160.855 359.231 161.013 358.958C162.335 356.529 163.629 354.087 164.951 351.658C165.727 350.236 166.503 348.799 167.308 347.405C167.538 347.017 167.854 346.673 168.185 346.371C168.644 345.954 169.306 345.969 169.665 346.443C170.01 346.888 170.297 347.434 170.412 347.995C170.585 348.814 170.513 349.676 170.642 350.509C170.757 351.227 171.001 351.931 171.188 352.621C171.849 352.636 172.108 352.248 172.338 351.86C173.2 350.293 174.235 348.828 174.795 347.104C174.968 346.558 175.485 346.127 175.672 345.595C176.089 344.359 176.922 343.425 177.713 342.434C177.799 342.333 177.9 342.218 177.914 342.103C178.13 341.098 178.877 340.437 179.423 339.646C180.386 338.267 181.234 336.802 182.125 335.365C182.484 334.79 182.872 334.215 183.203 333.626C184.18 331.83 185.114 330.005 186.106 328.224C187.025 326.586 188.103 325.034 188.966 323.367C189.799 321.758 190.963 320.335 191.581 318.582C192.098 317.103 192.831 315.709 194.024 314.631C194.613 314.1 195.605 314.114 196.151 314.631C196.424 314.89 196.539 315.206 196.223 315.479C194.829 316.715 194.312 318.381 193.866 320.091C193.651 320.939 193.392 321.772 192.587 322.318C192.343 322.476 192.257 322.864 192.113 323.152C191.294 324.746 190.719 326.428 189.799 327.979C188.966 329.387 188.491 330.997 187.859 332.52C187.773 332.735 187.686 332.936 187.586 333.138C187.241 333.87 186.882 334.589 186.537 335.322C185.861 336.73 185.229 338.152 184.525 339.546C183.821 340.94 183.045 342.29 182.326 343.684C182.039 344.259 181.866 344.891 181.593 345.48C181.363 345.983 181.076 346.443 180.803 346.931C180.702 347.104 180.573 347.247 180.501 347.434C179.624 350.049 178.216 352.377 176.894 354.762C175.744 356.845 174.58 358.914 173.401 360.969C172.065 363.282 170.7 365.567 169.363 367.866C168.932 368.627 168.573 369.432 168.17 370.208C168.084 370.38 168.012 370.567 167.883 370.711C167.538 371.099 167.207 371.602 166.604 371.401C166.043 371.214 165.727 370.74 165.598 370.179C165.555 369.993 165.555 369.791 165.555 369.59C165.555 367.737 165.54 365.869 165.569 364.015C165.583 362.981 165.698 361.946 165.741 360.912C165.741 360.624 165.641 360.323 165.598 360.035C165.511 360.021 165.425 360.007 165.339 359.992L165.353 359.978Z" fill="#EB3F22"/>
<path d="M150.263 84.7228C150.292 84.4786 150.349 84.2487 150.335 84.0332C150.22 82.6682 150.105 81.2888 149.961 79.9238C149.774 78.1134 149.573 76.3173 149.372 74.5069C149.271 73.6592 149.156 72.8258 149.056 71.9781C148.61 68.0555 148.165 64.1186 147.719 60.196C147.676 59.8512 147.59 59.5063 147.547 59.1615C147.46 58.4862 147.676 58.1126 148.28 57.8109C148.768 57.5666 149.487 57.6384 149.817 58.0551C150.277 58.6155 150.752 59.1327 150.852 59.9374C150.938 60.6414 151.312 61.3024 151.542 61.9921C151.743 62.5668 151.916 63.1559 152.088 63.745C152.117 63.8312 152.088 63.9318 152.117 64.0036C152.835 66.0439 153.554 68.0699 154.287 70.1102C154.431 70.4981 154.56 70.8861 154.689 71.274C155.336 73.1563 155.968 75.0385 156.615 76.9064C156.744 77.2944 156.989 77.6392 157.161 78.0128C157.923 79.7801 158.684 81.5618 159.446 83.3291C159.82 84.1912 160.237 85.0246 160.538 85.9011C161.199 87.8408 162.162 89.6368 162.91 91.5335C163.614 93.3008 164.519 94.9675 165.223 96.7348C165.956 98.5452 166.574 100.413 167.235 102.252C167.25 102.31 167.25 102.367 167.279 102.425C167.868 103.79 168.514 105.14 169.046 106.52C169.578 107.913 170.411 109.149 170.828 110.615C171.231 112.066 171.978 113.431 172.538 114.853C172.941 115.859 173.343 116.851 173.846 117.813C174.321 118.733 174.565 119.782 174.938 120.773C175.154 121.348 175.355 121.937 175.628 122.483C176.031 123.288 176.261 124.092 176.074 125.012C175.916 125.816 175.269 126.147 174.536 125.716C173.76 125.256 173.315 124.552 172.97 123.762C172.653 123.015 172.28 122.253 172.165 121.463C172.035 120.644 171.647 119.983 171.317 119.264C170.685 117.885 169.966 116.549 169.305 115.184C168.974 114.494 168.673 113.79 168.342 113.115C167.667 111.75 166.991 110.385 166.273 109.049C165.726 108.043 165.08 107.094 164.505 106.103C164.002 105.241 163.542 104.364 163.068 103.488C162.996 103.359 162.924 103.215 162.924 103.086C162.953 101.548 162.033 100.341 161.473 99.005C161.372 98.7607 161.271 98.5165 161.156 98.2722C160.74 97.4101 160.337 96.5193 159.877 95.6715C159.274 94.5364 158.598 93.4301 157.995 92.295C157.736 91.8065 157.621 91.2461 157.377 90.7575C157.003 89.9673 156.601 89.1914 156.155 88.4442C156.055 88.2575 155.71 88.0707 155.537 88.1138C155.365 88.1712 155.192 88.4873 155.164 88.7172C155.12 89.1196 155.164 89.5362 155.221 89.9386C155.365 91.3323 155.494 92.726 155.652 94.1198C155.825 95.5566 156.026 97.0078 156.184 98.4446C156.241 99.0194 156.256 99.6085 156.241 100.198C156.227 100.629 155.954 100.83 155.523 100.744C154.114 100.499 152.965 99.8527 152.433 98.4446C152.002 97.3095 151.355 96.3181 150.665 95.3267C150.033 94.4215 149.645 93.3582 149.171 92.3524C148.61 91.1599 148.107 89.9386 147.475 88.7891C146.426 86.8925 145.305 85.0389 144.198 83.171C144.026 82.898 143.767 82.6682 143.537 82.3952C143.149 82.8549 143.235 83.2573 143.307 83.6596C143.508 84.6941 143.71 85.7286 143.925 86.7631C143.968 86.993 144.04 87.2086 144.126 87.4385C144.543 88.631 144.73 89.8811 144.773 91.1455C144.773 91.4041 144.759 91.6771 144.687 91.9214C144.5 92.6111 144.083 92.7835 143.422 92.5392C142.402 92.1657 141.583 91.6197 140.965 90.6713C140.433 89.838 139.686 89.1483 139.039 88.3868C138.881 88.2144 138.723 88.0419 138.593 87.8408C138.191 87.1942 137.774 86.5907 137.127 86.1166C136.653 85.7574 136.366 85.1683 136.007 84.6654C135.489 83.9613 134.914 83.286 134.469 82.5245C133.549 80.9152 132.399 79.4784 131.206 78.0703C129.884 76.5185 128.562 74.9523 127.312 73.3431C126.766 72.6534 126.263 71.935 125.559 71.389C125.357 71.2309 125.228 70.9867 125.084 70.7568C124.639 70.0383 124.251 69.2768 123.518 68.7739C123.23 68.5728 123.087 68.1561 122.857 67.8544C121.966 66.6905 121.089 65.5267 120.169 64.3916C118.876 62.7967 117.582 61.2305 116.246 59.6644C114.536 57.6528 112.797 55.67 111.072 53.6728C110.267 52.7388 109.42 51.848 108.658 50.8853C108.155 50.2387 107.738 49.5203 107.364 48.8019C107.063 48.2128 107.379 47.6668 107.738 47.1783C108.054 46.7472 108.471 46.8047 108.931 46.9053C109.491 47.0202 109.937 47.2645 110.325 47.7243C111.719 49.3766 113.142 51.0002 114.593 52.6095C115.197 53.2848 115.915 53.8452 116.505 54.5205C117.769 55.943 118.991 57.3942 120.256 58.831C120.744 59.377 121.29 59.8655 121.779 60.4115C122.785 61.5466 123.776 62.6961 124.768 63.8599C125.918 65.2249 127.039 66.6043 128.188 67.9693C129.338 69.3343 130.502 70.6849 131.666 72.0212C132.371 72.8402 133.089 73.6448 133.822 74.4351C133.98 74.5931 134.311 74.7656 134.483 74.6937C134.67 74.6219 134.771 74.3058 134.871 74.0615C134.914 73.9322 134.9 73.7741 134.871 73.6304C134.569 72.2942 134.253 70.9436 133.937 69.6073C133.908 69.4636 133.851 69.3199 133.793 69.1906C132.974 67.6245 132.658 65.8715 132.083 64.2192C131.925 63.7737 131.738 63.3571 131.551 62.926C131.508 62.8111 131.422 62.7105 131.422 62.6099C131.422 61.1874 130.718 59.9805 130.315 58.673C129.755 56.8913 129.252 55.0809 128.663 53.3136C128.217 51.9486 127.542 50.6554 127.211 49.276C126.996 48.3134 126.363 47.3938 126.723 46.3162C126.881 45.842 127.111 45.5546 127.614 45.4828C128.102 45.4109 128.476 45.5115 128.72 45.9713C128.893 46.3161 129.08 46.6466 129.266 46.9771C129.381 47.207 129.468 47.4656 129.611 47.6811C131.681 50.8422 133.319 54.2619 135.389 57.4229C135.92 58.2275 136.466 59.0609 136.783 59.9517C137.3 61.4461 138.277 62.6674 138.924 64.0755C139.484 65.3255 140.203 66.5037 140.821 67.725C141.367 68.7883 141.884 69.8803 142.402 70.9436C142.459 71.0729 142.531 71.2022 142.603 71.3315C143.264 72.639 143.896 73.9465 144.601 75.2253C145.262 76.4323 146.009 77.5817 146.699 78.7743C147.029 79.3634 147.317 79.9669 147.619 80.5704C148.193 81.7486 148.768 82.9268 149.357 84.105C149.516 84.4067 149.702 84.7228 150.205 84.7372L150.263 84.7228Z" fill="#EB3F22"/>
<path d="M296.448 81.9929C297.038 81.2458 297.555 80.4555 297.957 79.579C298.834 77.6537 299.768 75.7714 300.602 73.8317C301.076 72.7397 301.78 71.7339 302.01 70.5126C302.111 69.9666 302.455 69.4062 302.829 68.9895C303.332 68.4292 303.634 67.8113 303.85 67.136C304.065 66.4463 304.41 65.8429 304.913 65.2969C305.229 64.952 305.445 64.5066 305.689 64.0899C306.063 63.4864 306.393 62.8399 306.824 62.2795C307.241 61.7048 308.247 61.8341 308.678 62.4807C308.836 62.7106 308.937 63.0267 308.937 63.2997C308.937 64.6647 309.109 66.0296 308.664 67.3659C308.563 67.6676 308.578 68.0125 308.563 68.3286C308.491 69.593 308.434 70.8574 308.333 72.1218C308.319 72.4092 308.147 72.6822 308.103 72.9552C307.988 73.7598 307.83 74.5501 307.816 75.3547C307.802 75.9007 308.204 76.0588 308.578 75.6708C308.908 75.326 309.167 74.8949 309.426 74.4926C309.598 74.2196 309.713 73.9179 309.871 73.6305C310.762 72.1218 311.653 70.6132 312.559 69.1045C313.018 68.3286 313.493 67.5527 313.967 66.7768C314.024 66.6906 314.096 66.6187 314.125 66.5325C314.829 64.8227 315.519 63.1129 316.238 61.4174C316.482 60.8427 316.726 60.2823 317.014 59.7363C317.632 58.6012 318.293 57.4805 318.925 56.3597C319.083 56.0724 319.169 55.7563 319.299 55.4545C319.428 55.1528 319.486 54.7792 319.701 54.5637C320.607 53.6728 321.124 52.5521 321.627 51.4457C322.245 50.0951 323.308 49.0606 323.998 47.7818C324.458 46.9197 324.803 46.0001 325.593 45.3679C326.197 44.8794 326.757 44.3334 327.375 43.8592C328.022 43.3563 328.985 43.3994 329.531 43.9023C330.12 44.434 330.235 45.2961 329.833 46.0432C329.042 47.5232 328.482 49.1037 327.821 50.6411C327.419 51.5894 326.858 52.4659 326.369 53.3711C326.01 54.032 325.68 54.7074 325.277 55.3252C324.401 56.6471 323.51 57.969 322.561 59.2478C321.972 60.0524 321.598 60.9289 321.239 61.8484C320.937 62.6243 320.592 63.4146 320.132 64.1043C319.241 65.4405 318.623 66.8917 317.919 68.3142C317.315 69.5643 316.64 70.7856 316.051 72.05C315.232 73.8173 314.456 75.599 313.665 77.3807C313.55 77.6393 313.363 77.8836 313.22 78.1422C312.63 79.2198 311.883 80.2112 311.524 81.4182C311.337 82.0504 310.82 82.582 310.503 83.1855C309.986 84.1913 309.569 85.2689 309.009 86.2459C308.204 87.6541 307.615 89.1771 306.609 90.4703C306.379 90.772 306.221 91.1456 306.048 91.4904C305.531 92.4531 304.784 92.5968 304.008 91.8209C303.433 91.2462 303.088 90.5421 302.858 89.7231C302.312 87.8552 302.599 85.9729 302.499 84.0907C302.47 83.5447 302.398 82.9843 302.254 82.4527C302.125 81.9642 301.737 81.878 301.363 82.2372C301.133 82.4527 300.947 82.7401 300.788 83.0131C299.466 85.4413 298.173 87.8839 296.851 90.3122C296.075 91.7347 295.299 93.1715 294.494 94.5653C294.264 94.9532 293.948 95.298 293.617 95.5998C293.157 96.0165 292.496 96.0021 292.137 95.5279C291.792 95.0825 291.505 94.5365 291.39 93.9761C291.217 93.1572 291.289 92.295 291.16 91.4617C291.045 90.7433 290.8 90.0392 290.613 89.3495C289.952 89.3352 289.694 89.7231 289.464 90.111C288.602 91.6772 287.567 93.1428 287.006 94.867C286.834 95.413 286.316 95.844 286.13 96.3757C285.713 97.6113 284.879 98.5453 284.089 99.5367C284.003 99.6373 283.902 99.7522 283.888 99.8672C283.672 100.873 282.925 101.534 282.379 102.324C281.416 103.704 280.568 105.169 279.677 106.606C279.318 107.181 278.93 107.755 278.599 108.345C277.622 110.141 276.688 111.965 275.696 113.747C274.776 115.385 273.698 116.937 272.836 118.604C272.003 120.213 270.839 121.635 270.221 123.388C269.703 124.868 268.97 126.262 267.777 127.34C267.188 127.871 266.197 127.857 265.65 127.34C265.377 127.081 265.262 126.765 265.579 126.492C266.973 125.256 267.49 123.589 267.936 121.88C268.151 121.032 268.41 120.198 269.215 119.652C269.459 119.494 269.545 119.106 269.689 118.819C270.508 117.224 271.083 115.543 272.003 113.991C272.836 112.583 273.31 110.974 273.943 109.451C274.029 109.235 274.115 109.034 274.216 108.833C274.561 108.1 274.92 107.382 275.265 106.649C275.94 105.241 276.573 103.818 277.277 102.425C277.981 101.031 278.757 99.6804 279.476 98.2867C279.763 97.7119 279.936 97.0797 280.209 96.4906C280.439 95.9877 280.726 95.5279 280.999 95.0394C281.1 94.867 281.229 94.7233 281.301 94.5365C282.178 91.9215 283.586 89.5938 284.908 87.2086C286.058 85.1252 287.222 83.0562 288.4 81.0015C289.737 78.6882 291.102 76.4036 292.439 74.1047C292.87 73.3431 293.229 72.5385 293.631 71.7626C293.718 71.5902 293.79 71.4034 293.919 71.2597C294.264 70.8718 294.594 70.3689 295.198 70.5701C295.758 70.7569 296.075 71.231 296.204 71.7914C296.247 71.9782 296.247 72.1793 296.247 72.3805C296.247 74.234 296.261 76.1019 296.233 77.9554C296.218 78.9899 296.103 80.0244 296.06 81.059C296.06 81.3463 296.161 81.6481 296.204 81.9354C296.29 81.9498 296.376 81.9642 296.463 81.9785L296.448 81.9929Z" fill="#EB3F22"/>
<path d="M221.875 26.3009H219.001V134.768H221.875V26.3009Z" fill="#EB3F22"/>
<path d="M255.073 136.205C246.35 136.205 236.089 107.008 232.079 94.4645C225.756 74.6649 219.001 46.3592 219.001 26.3009H221.875C221.875 63.0983 245.43 133.331 255.073 133.331V136.205Z" fill="#EB3F22"/>
<path d="M240.825 115.171L219.551 131.8L221.322 134.064L242.595 117.435L240.825 115.171Z" fill="#EB3F22"/>
<path d="M222.28 51.5015L219.563 53.6255L221.333 55.8894L224.051 53.7654L222.28 51.5015Z" fill="#EB3F22"/>
<path d="M240.825 115.171L219.551 131.8L221.322 134.064L242.595 117.435L240.825 115.171Z" fill="#EB3F22"/>
<path d="M222.28 51.5015L219.563 53.6255L221.333 55.8894L224.051 53.7654L222.28 51.5015Z" fill="#EB3F22"/>
<path d="M221.177 112.142L219.686 114.599L249.382 132.615L250.873 130.158L221.177 112.142Z" fill="#EB3F22"/>
<path d="M234.997 100.16L219.545 112.22L221.314 114.485L236.765 102.425L234.997 100.16Z" fill="#EB3F22"/>
<path d="M221.185 92.5976L219.694 95.0543L235.998 104.946L237.489 102.489L221.185 92.5976Z" fill="#EB3F22"/>
<path d="M230.008 84.5379L219.547 92.7153L221.317 94.9792L231.778 86.8018L230.008 84.5379Z" fill="#EB3F22"/>
<path d="M228.471 80.8433L219.82 75.5845L221.171 73.0557L229.952 78.3863L228.471 80.8433Z" fill="#EB3F22"/>
<path d="M225.789 68.465L219.562 73.3325L221.332 75.5964L227.559 70.7289L225.789 68.465Z" fill="#EB3F22"/>
<path d="M221.187 53.6758L219.697 56.1333L223.225 58.2707L224.714 55.8132L221.187 53.6758Z" fill="#EB3F22"/>
<path d="M221.789 26.3009H218.915V134.768H221.789V26.3009Z" fill="#EB3F22"/>
<path d="M185.717 136.205V133.331C195.36 133.331 218.915 63.0983 218.915 26.3009H221.789C221.789 61.2879 199.14 136.205 185.717 136.205Z" fill="#EB3F22"/>
<path d="M199.979 115.18L198.209 117.444L219.486 134.07L221.256 131.805L199.979 115.18Z" fill="#EB3F22"/>
<path d="M218.517 51.4713L216.746 53.7349L219.463 55.8593L221.234 53.5958L218.517 51.4713Z" fill="#EB3F22"/>
<path d="M199.979 115.18L198.209 117.444L219.486 134.07L221.256 131.805L199.979 115.18Z" fill="#EB3F22"/>
<path d="M218.517 51.4713L216.746 53.7349L219.463 55.8593L221.234 53.5958L218.517 51.4713Z" fill="#EB3F22"/>
<path d="M219.605 112.161L189.91 130.178L191.401 132.634L221.097 114.618L219.605 112.161Z" fill="#EB3F22"/>
<path d="M205.806 100.195L204.036 102.46L219.481 114.528L221.251 112.264L205.806 100.195Z" fill="#EB3F22"/>
<path d="M219.615 92.6122L203.306 102.495L204.795 104.953L221.104 95.0697L219.615 92.6122Z" fill="#EB3F22"/>
<path d="M210.774 84.5456L209.004 86.8098L219.467 94.9854L221.237 92.7212L210.774 84.5456Z" fill="#EB3F22"/>
<path d="M212.318 80.8433L210.838 78.3863L219.619 73.0557L221.085 75.527L212.318 80.8433Z" fill="#EB3F22"/>
<path d="M215.019 68.4825L213.249 70.7467L219.477 75.6131L221.247 73.3489L215.019 68.4825Z" fill="#EB3F22"/>
<path d="M219.594 53.7051L216.067 55.8425L217.557 58.3L221.084 56.1626L219.594 53.7051Z" fill="#EB3F22"/>
<path d="M220.438 31.761C223.097 31.761 225.252 29.6059 225.252 26.9476C225.252 24.2892 223.097 22.1342 220.438 22.1342C217.779 22.1342 215.624 24.2892 215.624 26.9476C215.624 29.6059 217.779 31.761 220.438 31.761Z" fill="#EB3F22"/>
<path d="M220.438 33.1978C216.989 33.1978 214.187 30.3959 214.187 26.9475C214.187 23.4991 216.989 20.6973 220.438 20.6973C223.887 20.6973 226.69 23.4991 226.69 26.9475C226.69 30.3959 223.887 33.1978 220.438 33.1978ZM220.438 23.5709C218.584 23.5709 217.061 25.0796 217.061 26.9475C217.061 28.8154 218.57 30.3241 220.438 30.3241C222.306 30.3241 223.815 28.8154 223.815 26.9475C223.815 25.0796 222.306 23.5709 220.438 23.5709Z" fill="white"/>
<path d="M220.438 196.825C219.648 196.825 219.001 196.178 219.001 195.388V132.929C219.001 132.138 219.648 131.492 220.438 131.492C221.229 131.492 221.875 132.138 221.875 132.929V195.388C221.875 196.178 221.229 196.825 220.438 196.825Z" fill="#EB3F22"/>
<path d="M220.438 333.799C219.648 333.799 219.001 333.152 219.001 332.362V271.339C219.001 270.549 219.648 269.902 220.438 269.902C221.229 269.902 221.875 270.549 221.875 271.339V332.362C221.875 333.152 221.229 333.799 220.438 333.799Z" fill="#EB3F22"/>
</g>
<defs>
<clipPath id="clip0_19_282">
<rect width="440" height="398" fill="white"/>
</clipPath>
</defs>
</svg>
